<?xml version="1.0" encoding="UTF-8"?> <!-- Generator: Adobe Illustrator 26.4.1, SVG Export Plug-In . SVG Version: 6.00 Build 0) --> <svg xmlns="http://www.w3.org/2000/svg" xmlns:xlink="http://www.w3.org/1999/xlink" version="1.1" id="Layer_1" x="0px" y="0px" viewBox="0 0 1080 1296" style="enable-background:new 0 0 1080 1296;" xml:space="preserve"> <style type="text/css"> .st0{fill:#FFFFFF;} </style> <path d="M1028.4,593.13c0.87,263.8-212.92,487.98-488.38,488.01c-268.53,0.03-488.24-216.01-488.2-488.35 c0.04-276.12,224.55-489.32,489.78-488.47C812.09,105.18,1029.51,325.84,1028.4,593.13z M1014.89,593.05 c0.66-261.51-211.97-474.01-472.73-475.08C281.8,116.9,66.02,327.21,65.39,591.62c-0.62,263.06,212.19,475.31,473.67,475.89 C803.48,1068.1,1015.31,853.31,1014.89,593.05z"></path> <path class="st0" d="M1014.89,593.05c0.42,260.26-211.41,475.05-475.83,474.47c-261.48-0.58-474.29-212.83-473.67-475.89 C66.02,327.21,281.8,116.9,542.16,117.97C802.92,119.04,1015.55,331.54,1014.89,593.05z M81.62,592.41 c0.05,253.81,205.04,457.94,456.77,458.86c255.72,0.94,460.19-206.57,460.34-458.18c0.15-252.66-204.95-458.58-457.99-458.89 C289.42,133.91,82.05,337.2,81.62,592.41z"></path> <path d="M81.62,592.41c0.43-255.21,207.81-458.5,459.12-458.2c253.04,0.31,458.15,206.23,457.99,458.89 c-0.15,251.6-204.63,459.12-460.34,458.18C286.66,1050.35,81.67,846.22,81.62,592.41z M256.03,590.62 c0.38,159.28,129.59,282.57,281.99,283.19c152.93,0.62,283.89-122.53,284.09-282.64c0.2-159.73-129.69-282.96-282.07-283.4 C386.33,307.32,256.58,431.26,256.03,590.62z M581.8,219.54c1.33-1.4,2.43-2.45,3.41-3.6c5.77-6.75,9.74-14.12,8.25-23.46 c-1.69-10.59-6.12-18.94-17.41-21.86c-0.94-0.24-1.85-0.57-2.78-0.84c-10.07-2.97-20.41-3.86-30.82-3.5 c-16.47,0.57-32.93,1.44-49.4,2.21c-0.78,0.04-1.55,0.39-2.47,0.63c0,1.52-0.05,2.89,0.01,4.25c0.52,11.49,1.08,22.98,1.58,34.47 c0.95,21.87,1.85,43.75,2.82,65.62c0.1,2.3,0.5,4.6,0.79,7.13c3.01,0,5.62,0.05,8.22-0.01c17.45-0.39,34.91-0.76,52.36-1.25 c5.66-0.16,11.4-0.17,16.96-1.09c12.35-2.03,20.7-9.27,23.96-21.37c3.2-11.91,1.18-22.84-8.51-31.45 C586.61,223.49,584.35,221.68,581.8,219.54z M347,211.18c1.74,7.08,41.36,101.99,43.51,104.4c7.52-3.16,31.06-16.38,33.3-18.79 c-3.89-8.99-7.82-18.08-11.89-27.52c3.35-1.58,6.35-2.96,9.32-4.41c1.57-0.77,2.9-0.51,4.23,0.54c3.6,2.82,7.3,5.52,10.84,8.41 c5.26,4.3,10.47,8.66,15.6,13.12c1.93,1.68,3.7,2.25,6.35,1.61c10.22-2.46,20.52-4.57,30.78-6.86c0.98-0.22,1.88-0.75,3.36-1.36 c-12.9-12.54-27.23-22.7-38.59-35.89c0.45-0.89,0.67-1.4,0.95-1.86c5.23-8.73,7.26-17.9,5.76-28.22 c-2.24-15.35-11.48-24.55-25.3-28.7c-9.18-2.75-18.37-1.73-27.51,0.41c-10.98,2.57-21.31,6.92-31.51,11.6 C366.52,202.09,356.88,206.6,347,211.18z M387.09,317.69c-34.76-22.05-68.98-43.75-103.11-65.4c-0.86,0.51-1.38,0.73-1.78,1.08 c-12.93,11.11-25.84,22.25-38.8,33.33c-1.67,1.43-1.82,2.71-0.97,4.68c3.43,7.87,6.68,15.82,10.01,23.73 c11.27,26.81,22.54,53.62,33.83,80.42c0.95,2.26,2.07,4.44,3.19,6.83c0.83-0.57,1.36-0.81,1.71-1.2 c7.79-8.66,15.53-17.35,23.34-25.99c1.21-1.34,1.31-2.63,0.64-4.17c-1.2-2.8-2.36-5.62-3.53-8.43c-1.8-4.31-3.59-8.62-5.43-13.05 c9.14-7.69,18.07-15.16,26.93-22.7c1.46-1.24,2.7-0.96,4.15-0.17c5.73,3.08,11.53,6.05,17.21,9.22c2.09,1.17,3.69,1.08,5.68-0.28 c6.76-4.6,13.64-9.02,20.46-13.53C382.7,320.7,384.74,319.29,387.09,317.69z M424.7,916.98c0.19-8.91-1.59-17.83-6.25-25.94 c-7.77-13.53-18.73-23.57-33.42-29.24c-9.57-3.69-19.54-5.54-29.73-4.16c-12.21,1.65-23.07,6.81-32.36,14.94 c-15.12,13.25-22.29,30.13-19.99,50.01c2.39,20.65,13.1,36.51,31.54,46.65c13.83,7.6,28.63,10.6,44.11,7.03 C402.34,970.79,425.21,950.26,424.7,916.98z M670.28,188.75c-12.66-4.08-24.72-7.96-37.06-11.93c-0.73,1.73-1.31,2.96-1.78,4.23 c-3.53,9.47-7.12,18.93-10.55,28.44c-4.85,13.42-9.28,26.96-12.52,40.89c-2.64,11.32,0.02,21.12,7.06,29.97 c2.06,2.59,4.4,5.01,6.87,7.21c7.12,6.35,15.36,10.94,24.28,14.17c12.15,4.41,24.71,6.28,37.56,3.97 c8.03-1.44,14.72-5.07,19.4-12.28c6.14-9.47,11.28-19.41,15.58-29.8c6.35-15.36,12.55-30.78,18.8-46.19 c0.19-0.47,0.18-1.02,0.31-1.86c-11.7-4.51-22.34-11.1-34.52-15.18c-0.81,1.93-1.54,3.53-2.18,5.18 c-5.36,13.97-10.56,28-16.11,41.89c-3.55,8.89-8.2,17.26-13.51,25.25c-1.7,2.56-3.94,3.69-6.91,3.87 c-3.72,0.22-7.09-0.85-10.44-2.26c-7.32-3.06-10.21-8.62-8.27-16.38c1.04-4.16,2.07-8.35,3.51-12.39 c5.67-15.92,11.51-31.78,17.27-47.66C668.09,195.07,669.07,192.21,670.28,188.75z M828.64,469.24c1.23-2.11,1.99-3.37,2.72-4.65 c10.39-18.01,20.8-36,31.13-54.05c1.4-2.45,3.09-3.46,6-3.22c9.53,0.78,19.08,1.28,28.62,1.95c5.8,0.41,11.6,1,17.4,1.38 c2.69,0.17,5.4,0.03,8.65,0.03c-2.05-3.99-3.81-7.56-5.69-11.06c-3.46-6.47-7.01-12.9-10.48-19.37c-1.09-2.04-2.79-2.95-5.02-3.13 c-3.59-0.29-7.17-0.67-10.76-0.96c-7.18-0.59-14.38-1.05-21.55-1.76c-3.91-0.38-7.78-1.16-12.52-1.88c10.21-9.25,21.3-16,30.44-25.5 c-3.67-4.86-7.15-9.5-10.66-14.12c-3.18-4.2-6.42-8.36-9.56-12.59c-1.24-1.67-2.59-1.92-4.26-0.81c-0.92,0.61-1.84,1.23-2.73,1.89 c-6.93,5.09-13.86,10.18-20.78,15.28c-20.43,15.06-40.8,30.21-60.18,46.62c-1.13,0.95-2.18,2-3.48,3.2 c7.07,9.48,13.91,18.65,21.09,28.28c6.26-4.53,12.1-8.69,17.88-12.95c5.71-4.21,11.26-8.66,17.6-12.08 c-2.01,4.71-4.32,9.09-6.67,13.46c-5.06,9.4-10.14,18.78-15.21,28.17c-0.8,1.49-1.31,2.83-0.32,4.64 c4.53,8.26,8.85,16.64,13.32,24.94C824.97,463.48,826.59,465.88,828.64,469.24z M148.2,434.27c-1.35,1.19-2.67,2.19-3.79,3.37 c-15.53,16.39-22.98,35.77-20.73,58.37c1.48,14.84,9.2,25.76,23.06,31.56c9.1,3.81,18.44,3.61,27.21-1.52 c6.85-4,12.21-9.49,15.96-16.55c2.14-4.04,4.37-8.04,6.74-11.94c1.89-3.12,4.43-5.69,7.69-7.44c4.23-2.28,7.52-1.18,9.39,3.28 c1.36,3.26,1.76,6.68,1.07,10.18c-1.01,5.09-2.99,9.79-5.76,14.16c-4.28,6.76-9.82,12.35-16.07,17.27c-1.03,0.81-2.01,1.7-3.44,2.91 c7.08,4.34,13.66,8.38,20.24,12.41c1.24,0.76,2.37,0.54,3.44-0.35c1.81-1.51,3.73-2.91,5.41-4.55 c14.86-14.52,22.81-32.17,23.44-52.96c0.26-8.41-1.1-16.57-4.99-24.17c-9.98-19.5-38.07-24.91-53.58-8.23 c-4,4.3-7.29,9.04-10.06,14.2c-2.16,4.02-4.44,8-6.95,11.81c-1.35,2.05-3.01,4.1-5.01,5.47c-6.4,4.38-10.69,1.99-12.31-5.31 c-0.75-3.39-0.29-7.22,0.34-10.72c1.78-9.83,7.39-17.47,14.63-24.06c1.08-0.98,2.14-1.98,3.49-3.23 C161.28,442.93,155.19,438.21,148.2,434.27z M675.78,900.44c14.58-7.35,28.97-14.61,43.67-22.02c-4.34-6.93-7.29-13.97-12.2-19.36 c-24.11,11.71-47.73,23.19-71.34,34.66c1.92,7.41,38.64,99.77,40.58,102.09c12.02-2.81,76.3-32.26,81.82-37.57 c-3.64-6.84-6.96-13.94-11.22-20.79c-15.35,6.55-30.32,12.94-45.78,19.53c-2.6-6.52-4.98-12.5-7.47-18.75 c12.59-5.96,25.37-10.5,37.31-17.4c-3.15-7.2-5.96-14.05-10.42-20.35c-12.53,6.07-24.82,11.68-37.9,16.21 C680.44,911.19,678.2,906.01,675.78,900.44z M838.92,862.63c-13.06,10.75-25.65,21.13-38.48,31.69 c-5.09-4.83-8.55-10.46-12.56-15.95c9.58-10.08,21.3-17.22,30.73-26.79c-4.72-6.92-11.95-14.39-15.97-16.49 c-9.89,9.09-20.42,17.57-31.37,25.97c-3.95-4.81-7.6-9.25-11.35-13.81c3.35-3.12,6.29-5.86,9.22-8.59c2.94-2.74,5.89-5.48,8.83-8.22 c2.94-2.74,5.93-5.43,8.82-8.23c2.83-2.75,6.06-5.11,8.69-8.59c-6.1-5.09-10.8-11.14-17.54-15.28 c-18.44,18.53-37.54,35.64-57.19,52.12c-0.31,0.26-0.56,0.61-0.81,0.94c-0.08,0.1-0.1,0.26-0.12,0.39 c-0.02,0.13-0.02,0.27-0.05,0.78c22.2,28.67,44.57,57.56,66.86,86.35c9.68-4.84,64.06-51.76,68.78-59.3 C850.09,874.14,844.71,868.59,838.92,862.63z M955.05,523.3c0.76-5.05,1.78-9.52,2.06-14.02c1.06-17.13-3.15-32.96-12.33-47.47 c-5.42-8.57-13.1-14.24-22.81-16.98c-16.39-4.64-32.22,2.88-38.21,18.12c-2.88,7.32-4.08,14.86-3.12,22.8 c0.63,5.2,0.63,10.52,0.43,15.76c-0.17,4.52-2.38,6.99-6.03,7.96c-3.98,1.06-7.06,0.07-9.48-4.01c-2.03-3.41-3.86-7.13-4.79-10.96 c-2.35-9.68-0.97-19.26,2.01-28.66c0.44-1.39,0.8-2.8,1.27-4.43c-1.5-0.14-2.45-0.31-3.4-0.31c-6.64-0.02-13.29-0.01-20.19-0.01 c-0.91,2.21-1.86,4.2-2.57,6.28c-8.75,25.76,2.1,54.77,19.83,71.01c7.69,7.04,17.36,8.89,27.57,7.85 c10.05-1.03,17.12-6.54,22.15-15.02c0.49-0.83,1.02-1.65,1.51-2.49c2.31-3.85,4.13-7.91,4.15-12.47c0.02-4.29-0.29-8.58-0.44-12.87 c-0.16-4.7-0.53-9.42-0.36-14.11c0.09-2.42,0.84-4.94,1.82-7.18c2.77-6.35,7.16-7.22,12.42-2.63c0.93,0.81,1.93,1.72,2.45,2.79 c1.62,3.34,3.43,6.67,4.43,10.21c1.73,6.08,1.24,12.37,0.49,18.59c-0.42,3.52-1.07,7.02-1.67,10.95 C939.91,522.43,947.04,522.84,955.05,523.3z M477.35,930.09c16.24,2.16,31.88,5.59,48.17,7.79c1.07-9.71,2.08-18.86,3.1-28.07 c-26.75-4.92-53.07-9.75-79.88-14.68c-9.03,35.98-17.95,71.91-26.81,108.07c11.9,4.68,23.69,7.34,36.01,9.05 c4.54-12.01,6.37-24.52,10.26-36.65c14.29,2.4,28.04,5.42,42.5,6.66c1.32-8.72,2.6-17.13,3.91-25.82 c-13.91-3.18-27.81-4.04-41.26-8.67C474.7,941.82,475.97,936.19,477.35,930.09z M621.61,897.73c-26.97,3.45-53.42,6.84-79.87,10.22 c-0.81,3.89,5.88,107.07,7.31,111.23c12.04,0.49,24.11,0.08,36.29-2.48c0.75-12.84-1.49-25.34-1.11-37.97 c14.25-1.97,28.13-3.36,42.28-6.51c-1.37-8.69-2.7-17.09-4.09-25.86c-14.15,1.29-27.65,4.75-41.91,4.25 c-0.54-6.09-1.06-11.82-1.62-18.08c16.08-2.32,31.89-4.61,48.27-6.98C625.26,916.03,623.46,906.98,621.61,897.73z M842.31,305.62 c-1.43-3.97-2.65-7.94-4.26-11.74c-8.65-20.46-23.67-33.77-45.13-39.63c-8.36-2.28-16.93-3.28-25.5-1.57 c-22.94,4.57-44.56,23.28-46.68,52.6c-0.84,11.58,1.05,22.75,7.13,32.79c10.73,17.72,26.54,28.19,46.84,32.11 c2.35,0.45,3.65-0.11,4.8-2c3.45-5.68,6.97-11.33,10.44-17c0.26-0.43,0.29-1,0.52-1.82c-3.03-0.52-5.89-0.81-8.64-1.52 c-12.59-3.25-21.94-10.32-26.35-22.97c-2.09-6-2.07-12,0.61-17.82c4.1-8.91,10.58-15.57,19.57-19.53c7.23-3.19,14.6-3,21.7,0.49 c11.09,5.45,17.25,14.82,20.46,26.43c0.42,1.53,0.84,3.06,1.26,4.59C823.71,317.52,835.37,310.78,842.31,305.62z M316.25,855.37 c7.02-3.52,13.55-6.81,20.1-10.09c1.95-0.98,1.96-2.67,1.29-4.27c-2.46-5.86-4.23-12.23-7.77-17.37 c-13.65-19.81-31.83-31.73-56.94-30.42c-12.52,0.65-24.09,4.16-33.74,12.32c-17.65,14.93-23.08,34.59-19.39,56.61 c5.2,30.98,32.11,47.29,58.08,49.63c2.1,0.19,3.38-0.62,4.3-2.44c2-3.96,4.15-7.84,6.11-11.81c1.14-2.31,2.04-4.75,3.06-7.17 c-0.74-0.36-1.09-0.64-1.47-0.68c-1.65-0.2-3.31-0.33-4.97-0.48c-13.69-1.25-23.48-8.35-30.06-20.15c-0.8-1.43-1.38-3.07-1.66-4.68 c-2.83-16.18,6.66-32.17,22.22-37.52c4.54-1.56,9.16-2.23,13.87-0.93c13.1,3.64,21.32,12.33,25.67,24.97 C315.36,852.04,315.64,853.24,316.25,855.37z M282.75,413.06c-22.84-15.04-45.24-29.79-67.79-44.64 c4.62-10.37,12.32-18.5,16.79-28.95c-8.2-4.81-16.14-9.46-24.39-14.3c-18.3,28.65-35.71,57.23-53.11,86.35 c7.83,5.48,15.39,10.66,23.55,15.43c5.86-9.06,10.38-18.46,17.02-26.87c23.35,14.43,46.33,28.98,69.7,43.37 C271.29,433.47,278.42,424.44,282.75,413.06z M198.2,691.6c3.18-2.68,6.15-5.17,9.11-7.66c2.97-2.49,6-4.92,8.91-7.49 c2.81-2.49,6.1-4.49,8.79-8.03c-1.58-0.18-2.5-0.38-3.43-0.39c-9.28-0.1-18.57-0.17-27.85-0.26c-4.2-0.04-4.22-0.05-5.55-3.96 c-2.59-7.6-5.13-15.21-7.73-22.8c-0.45-1.33-1.08-2.6-1.98-4.7c-5.71,11.15-7.75,22.7-13.5,32.86c-5.75,0-11.43-0.03-17.1,0.01 c-5.72,0.04-11.46-0.28-18.21,0.29c1.88,1.72,2.9,2.79,4.05,3.7c6.97,5.48,13.93,10.98,20.98,16.36c1.95,1.48,2.4,2.91,1.66,5.3 c-2.58,8.33-4.91,16.73-7.31,25.12c-0.36,1.26-0.56,2.56-1.03,4.76c2.88-1.56,4.97-2.59,6.95-3.79c6.75-4.09,13.49-8.19,20.17-12.4 c2.3-1.45,4.08-1.35,6.34,0.3c6.93,5.07,14.05,9.88,21.12,14.77c0.91,0.63,1.96,1.07,3.76,2.03 C203.5,713.68,200.89,702.81,198.2,691.6z M900.68,636.4c-1.02,2.23-1.69,3.52-2.22,4.86c-3.29,8.23-6.62,16.45-9.78,24.73 c-0.93,2.43-2.28,3.33-4.91,3.29c-9.01-0.15-18.02-0.08-27.04-0.06c-1.31,0-2.63,0.16-4.96,0.32c3.3,3.51,6.41,5.74,9.38,8.1 c2.93,2.33,5.92,4.58,8.87,6.88c3.04,2.38,6.06,4.77,9.23,7.27c-3.1,10.82-6.13,21.4-9.16,31.97c0.27,0.2,0.54,0.39,0.82,0.59 c10.33-4.88,19.03-12.66,29.77-17.25c2.94,2.04,5.9,4.09,8.85,6.14c3.07,2.14,6.1,4.34,9.23,6.39c2.9,1.89,5.42,4.47,9.32,5.62 c-0.2-1.26-0.27-2.06-0.45-2.84c-2.12-8.89-4.08-17.82-6.5-26.63c-0.85-3.09-0.1-4.82,2.23-6.7c7.11-5.76,14.08-11.69,21.07-17.59 c0.86-0.73,1.58-1.62,2.88-2.97c-2.09-0.1-3.31-0.2-4.53-0.21c-8.74-0.05-17.47-0.06-26.21-0.14c-4.92-0.05-4.93-0.1-6.46-4.6 c-2.55-7.47-5.08-14.95-7.64-22.41C902.06,639.89,901.54,638.66,900.68,636.4z"></path> <path class="st0" d="M256.03,590.62c0.56-159.36,130.3-283.29,284.01-282.85c152.38,0.44,282.27,123.67,282.07,283.4 c-0.2,160.11-131.16,283.26-284.09,282.64C385.62,873.19,256.4,749.89,256.03,590.62z M587.9,480.76c0.62-0.08,0.93-0.23,1.12-0.13 c0.61,0.31,1.22,0.67,1.77,1.09c20.54,15.54,29.88,35.86,26.16,61.66c-1.43,9.94-4.97,19.29-8.27,28.72 c-3.16,9.02-6.28,18.06-9.08,27.2c-1.79,5.84-2.82,11.83-1.45,18.04c1.12,5.08,2.88,9.86,5.71,14.19c2.5,3.82,5.28,7.47,7.96,11.17 c3.58,4.94,7.44,9.69,10.73,14.81c8.83,13.73,9.26,27.94,1.11,42.07c-3.45,5.98-7.63,11.56-11.7,17.17 c-4.15,5.72-8.71,11.14-12.81,16.9c-4.26,5.99-6.56,12.77-6.96,20.17c-0.41,7.55,1.34,14.66,4.66,21.31 c3.09,6.19,6.73,12.11,10.06,18.18c3.66,6.68,7.57,13.25,10.76,20.15c4,8.63,5.17,17.78,3.17,27.21c-0.15,0.72-0.02,1.5-0.02,2.59 c6.02-2.02,11.63-3.91,17.69-5.95c0-4.05,0.27-7.91-0.05-11.73c-0.72-8.63-4.35-16.3-8.75-23.58c-4.09-6.76-8.5-13.33-12.76-19.98 c-7.24-11.29-8.34-23.26-3.99-35.83c2.43-7.01,6.14-13.35,10.43-19.34c5.57-7.78,11.4-15.38,16.94-23.18 c1.58-2.22,2.79-4.8,3.73-7.37c2.68-7.36,2.9-14.88,1.16-22.52c-1.91-8.37-5.62-15.94-10.19-23.1c-5.37-8.42-10.9-16.74-16.48-25.01 c-5.38-7.96-6.47-16.64-4.8-25.87c1.57-8.7,5.31-16.59,8.95-24.54c1.67-3.65,3.61-7.25,4.68-11.08c7.34-26.3,3.1-50.75-12.2-73.32 c-0.8-1.18-1.63-2.34-2.45-3.51c2.12,0.43,3.8,1.33,5.32,2.45c5.81,4.27,10.25,9.76,13.55,16.1c2.17,4.17,3.93,8.55,5.78,12.88 c2.81,6.58,4.19,13.46,4.33,20.62c0.15,8.11-0.95,16.06-3.11,23.84c-3.19,11.48-6.58,22.91-9.94,34.34 c-1.6,5.45-1.69,10.89-0.52,16.44c1.36,6.48,4.03,12.4,7.67,17.85c3.85,5.76,8.1,11.26,11.93,17.03c3.22,4.84,6.43,9.73,9.04,14.91 c5.67,11.25,5.65,22.81,0.03,34.04c-2.84,5.67-6.38,11.04-10.05,16.23c-4.95,7.02-10.25,13.8-15.55,20.56 c-8.24,10.51-10.22,21.94-5.12,34.35c1.73,4.22,3.86,8.3,6.12,12.26c2.75,4.81,5.81,9.45,8.77,14.14 c6.68,10.6,12.86,21.39,13.29,34.63c4.29-1.2,8.24-2.39,11.71-4.76c2.21-1.51,3.35-3.28,2.61-6.31c-1.38-5.58-3.39-10.87-6.31-15.76 c-3.13-5.23-6.63-10.24-9.83-15.43c-2.98-4.83-5.83-9.75-8.62-14.69c-0.73-1.3-1.38-2.81-1.5-4.27c-0.38-4.56-0.64-9.13-0.64-13.7 c0-3.49,0.85-6.89,2.8-9.88c0.37-0.56,1.14-0.86,1.72-1.28c0.28,0.4,0.4,0.51,0.43,0.63c0.09,0.4,0.23,0.8,0.21,1.2 c-0.4,10.74,2.73,20.55,8.06,29.7c3.14,5.39,6.52,10.64,9.91,15.88c4.98,7.69,9.78,15.47,12.91,24.15c0.07,0.21,0.42,0.32,0.95,0.71 c8.69-5.19,17.63-10.24,25.22-18.4c-3.35-1.97-6.03-3.64-8.8-5.17c-2.84-1.57-3.49-2.83-1.79-5.58c1.73-2.79,3.97-5.27,6.04-7.94 c5.78,2.03,11.24,3.94,16.82,5.9c4.75-4.39,10.01-8.08,12.95-14.11c-5.87-4.66-12.49-6.92-19.8-8.77c0.61-2.1,0.81-4.11,1.73-5.7 c3.64-6.28,3.94-5.81,9.83-4.94c5.15,0.75,9.83,2.82,14.45,5.08c1.96,0.96,3.92,1.89,5.89,2.83c4.58-4.36,8.65-8.6,10.57-14.7 c-1.47-0.8-2.65-1.48-3.87-2.09c-6.06-3.07-12.16-6.06-18.18-9.2c-6.68-3.48-9.26-2.47-11.7,4.79c-0.53,1.58-0.98,3.18-1.55,4.74 c-0.42,1.17-0.94,2.31-1.46,3.44c-1.06,2.29-2.79,3.43-5.34,2.76c-4.54-1.19-9.25-1.99-13.56-3.77 c-12.79-5.26-22.58-14.82-33.26-23.71c1.12-2.74,2.02-5.35,3.22-7.8c1.53-3.11,3.36-6.06,4.98-9.12c4.42-8.33,6.08-17.15,4.81-26.55 c-0.85-6.26-2.68-12.23-5.63-17.74c-3.33-6.23-7.03-12.26-10.73-18.28c-4.06-6.62-8.44-13.04-12.42-19.7 c-3.89-6.51-5.4-13.68-4.15-21.2c0.84-5.04,1.88-10.08,3.31-14.99c2.95-10.11,5.99-20.14,7.17-30.72c0.9-8.1,0.92-16-0.84-23.95 c-2.14-9.69-6.07-18.69-10.17-27.65c-0.61-1.33-1.13-2.69-1.68-4.04c6.65,3.46,12.2,7.82,15.19,14.71 c10.54,24.29,12.71,48.88,2.74,73.95c-2.71,6.83-3.57,13.91-2.21,21.23c1.02,5.52,2.87,10.74,5.63,15.57 c3.1,5.41,6.53,10.63,9.79,15.94c3.63,5.9,7.41,11.72,10.79,17.76c2.99,5.35,5.1,11.13,5.57,17.3c0.27,3.55,1.4,6.2,4.45,8.29 c2.95,2.03,5.45,4.71,8.24,7c2.14,1.76,4.35,3.45,6.63,5.02c5.34,3.69,11.21,5.35,17.73,4.32c0.63-0.1,1.29-0.01,2.53-0.01 c-0.33,3-0.6,5.71-0.93,8.41c-0.33,2.66-1.54,5.25-0.96,8.2c7.91-0.06,14.56,2.91,21.01,6.58c3.01,1.71,6.07,3.36,9.18,4.88 c1.82,0.89,3.79,1.49,5.91,2.31c3.08-5.3,7.74-9.44,7.67-15.1c-6.7-4.01-12.8-7.55-18.77-11.29c-5.55-3.48-11.16-6.74-17.73-7.88 c-1.04-0.18-2.07-0.39-3.28-0.62c1.02-4.55,1.98-8.82,2.92-13.06c4.87-0.48,9.05,0.54,12.98,2.29c4.55,2.03,8.88,4.52,13.36,6.72 c4.97,2.44,10,4.74,14.97,7.17c2.13,1.04,3.64,0.46,5.06-1.3c3.69-4.54,5.13-9.92,6.43-15.35c-4.08-1.4-7.83-2.44-11.37-3.95 c-3.56-1.51-6.96-3.42-10.37-5.27c-3.53-1.92-6.88-4.21-10.51-5.9c-5.26-2.44-10.69-4.51-16.07-6.69c-1-0.4-2.07-0.61-3.28-0.96 c0.37-4.79-1.05-9.53,1.31-14.01c6.44,0.07,12.1,1.8,17.46,4.5c4.58,2.31,8.9,5.14,13.53,7.32c6,2.83,12.11,5.45,18.32,7.76 c4.76,1.77,7.64,0.16,8.68-4.73c1.02-4.79,1.46-9.71,2.18-14.82c-10.59,0.19-19.53-3.78-28.19-8.63c-4.23-2.37-8.3-5.07-12.68-7.14 c-5.11-2.42-10.42-4.46-15.75-6.36c-2.43-0.86-5.12-0.97-7.89-1.45c-0.95-4.84-1.89-9.55-2.81-14.26c3.87-0.87,8.1-0.89,11.82-0.2 c7.61,1.41,14.36,4.97,21.23,8.27c5.49,2.64,11,5.29,16.68,7.43c5.91,2.23,12.08,2.78,18.42,1.63c2.66-0.48,3.72-1.73,4.29-4.17 c1.54-6.6,0.55-13.23,0.74-20.15c-1.56,0.38-2.73,0.76-3.93,0.94c-3.68,0.55-7.37,1.35-11.07,1.46c-7.51,0.22-14.47-2.26-21.18-5.36 c-5.91-2.73-11.68-5.77-17.56-8.58c-7.79-3.73-15.78-6.79-24.57-7.18c-1.09-0.05-2.52-0.66-3.15-1.5 c-2.93-3.95-4.16-8.59-5.31-13.25c0.76-0.35,1.12-0.58,1.51-0.68c7.98-2.1,15.76-1.14,23.15,2.17c6.06,2.71,11.81,6.1,17.78,9.01 c5.34,2.61,10.65,5.4,16.24,7.35c8.9,3.11,17.46,1.66,25.49-3.33c2.24-1.39,3.41-2.79,2.93-5.64c-0.62-3.68-0.67-7.45-1.03-11.18 c-1.92-19.51-5.48-38.7-11.49-57.38c-13.25-41.13-36.01-76.27-67.11-106.12c-12.85-12.33-26.89-23.11-41.78-32.89 c-13.37-8.79-27.14-16.69-42.02-22.63c-25.71-10.26-52.44-15.87-80.04-17.7c-28.02-1.86-55.69,0.33-83,6.86 c-20.75,4.96-40.24,12.99-59.03,23.12c-24.02,12.95-45.74,28.82-64.56,48.56c-35.12,36.85-57.79,80.38-68.74,129.97 c-2.59,11.75-3.81,23.79-5.7,35.7c-0.78,4.89,0.97,9.5,6.88,11.05c1.47,0.39,2.89,0.98,4.36,1.35c8.31,2.07,16.3,0.61,23.93-2.76 c5.83-2.56,11.39-5.72,17.16-8.43c5.01-2.36,10.05-4.68,15.23-6.61c5.11-1.9,10.51-2.61,15.97-1.94c3.8,0.46,4.96,2.73,3.33,6.18 c-0.83,1.75-1.99,3.36-2.69,5.16c-1.91,4.88-2.93,5.96-8.14,5.89c-5.46-0.08-10.37,1.34-15.07,3.97c-2.78,1.56-5.63,2.99-8.51,4.36 c-6.26,2.97-12.43,6.14-18.85,8.71c-8.62,3.45-17.6,4.96-26.89,2.93c-1.96-0.43-3.9-0.96-6.34-1.57c0.61,7.9,1.19,15.32,1.77,22.81 c4.43,1.53,8.64,1.99,12.97,1.67c5.46-0.41,10.65-1.89,15.57-4.2c6.39-3.01,12.69-6.23,19.06-9.27c5.28-2.52,10.8-4.37,16.67-4.9 c2.29-0.2,4.66-0.66,7,0.63c-0.18,4.52-0.67,8.88-2.45,13.01c-0.61,1.41-1.3,2.59-3.22,2.75c-8.48,0.73-15.99,4.3-23.32,8.32 c-4.98,2.73-9.92,5.55-14.98,8.14c-6.62,3.39-13.62,5.45-21.13,5.54c-0.76,0.01-1.51,0.3-2.48,0.5c1.59,6.29,3.11,12.29,4.63,18.28 c6.25,0.85,11.76-0.43,16.97-2.8c4.66-2.12,9.07-4.79,13.67-7.05c4.59-2.26,9.2-4.54,13.96-6.37c3.86-1.49,7.98-2.06,12.05-1.14 c0,4.74,0,9.26,0,13.92c-8.25,1.02-15.14,4.55-21.8,8.62c-8.97,5.48-17.76,11.37-28.73,12.44c0.06,4.84,0.68,9.21,2.53,13.29 c1.93,4.24,5.06,5.64,9.52,4.31c1.98-0.59,3.93-1.4,5.73-2.41c3.14-1.76,6.13-3.79,9.24-5.61c3.94-2.31,7.79-4.85,11.95-6.69 c2.83-1.26,6.09-1.86,9.21-2.08c3.3-0.24,3.92,0.57,4.83,3.84c0.56,2,1.14,4.01,1.5,6.05c0.31,1.76,0.54,3.6-1,4.8 c-4.43,1.12-8.88,2.19-13.03,3.98c-3.4,1.47-6.42,3.81-9.63,5.73c-4.28,2.56-8.57,5.09-12.86,7.63c-0.79,0.47-1.59,0.92-2.71,1.57 c1.82,3.84,3.24,7.64,5.32,11.03c2.5,4.08,4.42,4.39,8.64,2.09c4.14-2.26,8.17-4.7,12.25-7.06c4.85-2.81,9.95-4.86,15.59-5.43 c0.88-0.09,1.75-0.36,2.64-0.55c-0.99-5.27-2.72-10.15-1.97-15.48c0.76-0.06,1.31-0.22,1.81-0.13c9,1.52,16.63-1.63,23.64-6.9 c3.99-3,7.94-6.06,11.98-8.99c1.35-0.98,1.94-2.09,2.18-3.75c1.03-7.05,3.15-13.81,6.38-20.13c3.34-6.53,6.99-12.92,10.63-19.3 c3.78-6.62,7.76-13.13,11.54-19.75c0.88-1.54,1.58-3.28,1.91-5.01c1.1-5.75,1.59-11.59,0.57-17.38 c-1.78-10.09-3.46-20.23-5.86-30.18c-4.78-19.83-1.41-38.22,8.69-55.64c2.89-4.98,6.38-9.42,11.57-12.23 c0.71-0.39,1.58-0.49,3.15-0.95c-4.9,6.49-8.26,12.81-10.48,19.73c-4.01,12.54-4.34,25.35-2.79,38.28 c1.26,10.51,4.12,20.62,7.69,30.58c1.39,3.87,2.27,8.01,2.71,12.1c0.89,8.42-1.5,16.28-5.65,23.49c-3.8,6.6-8,12.98-12.22,19.33 c-4.46,6.72-8.66,13.54-11.75,21.02c-2.64,6.4-3.7,13.02-3.17,19.93c0.86,11.34,5.08,21.5,10.69,31.2c1.03,1.78,2.1,3.53,3.34,5.6 c-10.65,8.23-20.2,17.57-32.36,23.41c-4.8,2.3-9.83,3.63-15.1,4.39c-3.09,0.45-5.22-0.67-6.63-3.13c-1.22-2.15-2.15-4.49-2.98-6.83 c-2.4-6.75-3.19-7.28-10.25-6.15c-0.96,0.15-1.9,0.4-2.83,0.67c-7.71,2.23-13.95,7.04-20.88,11.44c3.89,4.9,7.49,9.44,11.26,14.19 c1.63-0.85,3.09-1.6,4.54-2.35c2.95-1.54,5.85-3.18,8.86-4.58c3.08-1.44,6.37-1.86,9.75-1.26c2.42,0.43,4.34,1.57,5.82,3.63 c3.99,5.55,2.95,8.3-3.82,9.78c-2.84,0.62-5.73,1.09-8.52,1.89c-2.66,0.76-5.25,1.82-6.31,4.87c3.37,4.94,7.9,8.62,12.2,12.53 c1.12,1.02,2.24,0.95,3.44,0.39c1.89-0.88,3.69-1.94,5.63-2.67c2.19-0.82,4.45-1.51,6.74-1.96c0.97-0.19,2.48-0.01,3.08,0.63 c2.72,2.89,5.5,5.82,6.73,10.2c-3.42,2.13-6.78,4.22-10.51,6.54c8.02,7.99,16.25,14.7,26.75,19c3.36-10.71,9.27-19.6,14.97-28.61 c3.03-4.8,5.93-9.7,8.77-14.62c2.66-4.61,4.37-9.52,4.78-14.91c0.27-3.58,0.98-7.14,1.58-10.69c0.16-0.96,0.65-1.86,1.18-3.32 c3.93,6.59,5.87,12.88,4.83,19.97c-0.87,5.9-3.25,11.18-6.37,16.12c-3.4,5.39-7.19,10.55-10.57,15.95 c-2.57,4.1-5.15,8.27-7.02,12.71c-1.54,3.64-2.18,7.69-2.95,11.61c-0.2,1.02,0.27,2.65,1.03,3.29c3.81,3.23,8.23,5.41,13.1,6.92 c0.24-0.62,0.51-0.98,0.51-1.34c0.09-10.41,4.34-19.36,9.78-27.88c2.76-4.33,5.87-8.43,8.47-12.85c3.37-5.72,6.72-11.5,9.47-17.53 c3.8-8.33,3.62-16.94,0.29-25.49c-2.39-6.14-5.95-11.58-9.9-16.78c-4.36-5.74-9.07-11.24-13.17-17.16 c-3.38-4.87-6.44-10.04-8.99-15.39c-3.04-6.38-3.65-13.26-2.51-20.33c1.35-8.4,4.72-15.97,9.44-22.88 c4.14-6.06,8.64-11.9,13.35-17.52c8.11-9.67,12.07-20.48,9.96-33.1c-0.75-4.49-1.76-8.99-3.14-13.33c-2.55-8.06-5.55-15.97-8.18-24 c-2.69-8.22-4.8-16.71-3.53-25.35c2.2-14.97,7.04-29.08,16.09-41.44c2.81-3.84,6.33-6.99,10.48-9.36c0.88-0.5,1.86-0.81,3.54-1.52 c-1,1.41-1.45,2.1-1.96,2.75c-8.73,11.16-13.99,23.81-16.44,37.73c-2.46,14.04-1.47,27.61,4.85,40.59 c1.64,3.36,3.23,6.76,4.72,10.19c1.87,4.32,3.82,8.63,5.37,13.07c4.58,13.09,3.88,25.6-4.45,37.2c-4.53,6.3-9.17,12.55-13.41,19.04 c-3.4,5.2-6.93,10.48-9.28,16.19c-6.35,15.42-5.42,30.37,4.79,44.1c3.06,4.11,6.45,7.98,9.64,12c3.79,4.78,7.7,9.47,11.21,14.45 c3.38,4.8,5.71,10.18,6.36,16.09c1.24,11.34-0.63,22.14-6.4,32.05c-3.7,6.35-7.91,12.4-11.59,18.75c-2.7,4.66-5.16,9.5-7.3,14.44 c-2.53,5.85-2.76,12.1-2.18,18.4c0.24,2.57,1.15,4.28,3.95,5c4.15,1.06,8.2,2.56,12.3,3.85c0.73,0.23,1.5,0.32,2.49,0.53 c-0.47-3.32-1.06-6.29-1.29-9.28c-0.69-8.82,1.46-17.12,5.45-24.88c3.29-6.4,7.16-12.51,10.64-18.82c3.01-5.46,6.3-10.83,8.64-16.57 c6.44-15.78,5.31-30.93-5.22-44.81c-4.02-5.3-8.42-10.32-12.42-15.64c-3.57-4.76-7.27-9.51-10.13-14.69 c-6.06-10.97-6.66-22.56-1.56-34.04c2.46-5.54,5.67-10.79,8.98-15.89c3.32-5.11,7.28-9.8,10.79-14.78c6.42-9.1,9.1-19.15,7.55-30.3 c-1.05-7.49-3.6-14.51-6.42-21.45c-2.97-7.32-6.1-14.57-8.97-21.93c-5.42-13.91-5.71-28.2-2.29-42.54 c3.39-14.25,10.71-26.08,23.06-34.42c0.69-0.47,1.55-0.7,3.11-1.39c-3.5,5.11-6.58,9.38-9.42,13.8c-8.3,12.93-10.92,27.07-8.82,42.2 c1.42,10.26,4.93,19.88,8.86,29.37c3.98,9.6,8.17,19.12,12.06,28.76c2.94,7.27,3.67,14.88,1.39,22.42 c-1.39,4.61-3.26,9.17-5.62,13.36c-3.4,6.03-7.56,11.62-11.16,17.54c-2.95,4.85-5.96,9.72-8.25,14.89 c-5.63,12.75-4.7,25.16,3.26,36.75c3.06,4.45,6.52,8.62,9.8,12.92c3.36,4.41,7.06,8.6,10.03,13.26 c9.56,15.02,11.82,30.93,4.38,47.52c-3,6.69-6.64,13.1-9.97,19.64c-2.52,4.94-5.2,9.81-7.46,14.86c-3.57,7.96-5.46,16.32-4.55,25.09 c0.4,3.85,1.08,7.68,1.91,11.46c0.55,2.5,2.46,3.99,4.93,4.57c4.82,1.13,9.73,0.87,15.15,1.47c-0.85-1.97-1.41-3.21-1.93-4.48 c-3.24-7.88-4.19-16.01-2.84-24.46c1.15-7.19,3.53-13.97,6.65-20.49c3.41-7.13,7.21-14.06,10.56-21.22c2.75-5.89,5.38-11.87,7.54-18 c3.38-9.61,2.56-19.17-1.93-28.28c-1.95-3.96-4.22-7.82-6.8-11.41c-4.12-5.74-8.71-11.15-12.92-16.83 c-3.05-4.11-6.05-8.31-8.66-12.7c-5.43-9.11-5.87-18.69-1.41-28.27c2.04-4.37,4.61-8.54,7.31-12.56 c6.11-9.08,12.78-17.76,16.27-28.39c1.56-4.74,4.89-6.23,9.95-5.31c2.84,0.52,5.6,1.53,8.35,2.46c6.51,2.19,13.05,2.3,19.63,0.44 c2.67-0.75,5.26-1.85,7.97-2.34c2.82-0.5,5.77-0.81,8.6-0.53c3.18,0.31,5.5,2.04,6.47,5.5c1.52,5.41,4.66,10.04,7.96,14.52 c2.96,4.02,6.21,7.83,9.04,11.94c2.75,3.98,5.44,8.06,7.58,12.38c3.52,7.11,3.91,14.62,1.66,22.28c-1.86,6.34-4.93,12.07-8.83,17.33 c-4.46,6.01-9.37,11.7-13.71,17.8c-3.76,5.29-7.5,10.7-10.35,16.51c-4.96,10.09-4.4,20.42,0.71,30.43c2.96,5.8,6.1,11.51,9.14,17.28 c4.78,9.09,9.42,18.24,12.27,28.16c2.36,8.2,3.75,16.54,2.09,25.05c-0.84,4.31-2.21,8.52-3.38,12.94c0.59,0,1.27,0.12,1.9-0.02 c4.33-0.96,8.61-2.15,12.97-2.91c2.32-0.41,3.19-1.65,3.86-3.67c2.52-7.68,2.98-15.48,1.64-23.41c-1.57-9.29-5.48-17.71-9.89-25.91 c-3.93-7.33-8.02-14.58-11.94-21.91c-5.95-11.15-5.92-22.56-1.29-34.13c2.75-6.88,6.73-13.06,11.12-18.97 c5.13-6.9,10.46-13.66,15.56-20.58c6.13-8.32,7.66-17.67,5.6-27.66c-1.8-8.73-6.25-16.26-11.14-23.53 c-4.1-6.1-8.41-12.06-12.5-18.16c-5.6-8.38-7.01-17.65-5.4-27.46c1.34-8.17,4.79-15.59,8.21-23.03c3.71-8.05,7.81-15.99,10.74-24.32 c9.52-27.12,4.89-51.83-13.78-73.8C589.14,482.26,588.58,481.58,587.9,480.76z"></path> <path class="st0" d="M581.8,219.54c2.54,2.13,4.81,3.94,6.97,5.87c9.69,8.62,11.71,19.54,8.51,31.45 c-3.25,12.1-11.61,19.34-23.96,21.37c-5.56,0.92-11.3,0.93-16.96,1.09c-17.45,0.49-34.9,0.86-52.36,1.25 c-2.61,0.06-5.21,0.01-8.22,0.01c-0.29-2.54-0.69-4.83-0.79-7.13c-0.97-21.87-1.87-43.75-2.82-65.62 c-0.5-11.49-1.06-22.98-1.58-34.47c-0.06-1.37-0.01-2.74-0.01-4.25c0.92-0.24,1.69-0.59,2.47-0.63c16.46-0.77,32.93-1.64,49.4-2.21 c10.41-0.36,20.75,0.54,30.82,3.5c0.93,0.27,1.84,0.6,2.78,0.84c11.29,2.92,15.72,11.27,17.41,21.86 c1.49,9.33-2.48,16.71-8.25,23.46C584.23,217.09,583.14,218.14,581.8,219.54z M533.8,254.07c5.77-0.34,11.15-0.44,16.48-1.04 c5.54-0.62,8.83-4.96,8.99-11.11c0.14-5.41-2.77-9.32-8.5-9.86c-5.85-0.55-11.79-0.12-17.96-0.12 C532.2,239.4,532.4,246.37,533.8,254.07z M531.28,209.75c4.34,0,8.08,0.27,11.75-0.1c2.39-0.24,4.85-1.12,7-2.25 c3.69-1.93,4.87-5.59,4.01-10.82c-0.56-3.39-2.78-5.89-6.79-6.18c-5.59-0.4-11.23-0.1-17.11-0.1 C529.38,196.98,531.49,202.98,531.28,209.75z"></path> <path class="st0" d="M347,211.18c9.87-4.58,19.52-9.09,29.2-13.53c10.2-4.68,20.53-9.03,31.51-11.6c9.14-2.14,18.34-3.17,27.51-0.41 c13.82,4.15,23.06,13.36,25.3,28.7c1.5,10.31-0.53,19.49-5.76,28.22c-0.28,0.47-0.5,0.97-0.95,1.86 c11.36,13.19,25.69,23.35,38.59,35.89c-1.48,0.61-2.38,1.14-3.36,1.36c-10.26,2.29-20.56,4.41-30.78,6.86 c-2.65,0.64-4.42,0.06-6.35-1.61c-5.13-4.46-10.34-8.82-15.6-13.12c-3.54-2.89-7.24-5.59-10.84-8.41c-1.33-1.04-2.66-1.3-4.23-0.54 c-2.96,1.45-5.96,2.83-9.32,4.41c4.08,9.43,8.01,18.53,11.89,27.52c-2.24,2.41-25.78,15.63-33.3,18.79 C388.36,313.17,348.75,218.27,347,211.18z M399.88,244.01c6.64-2.8,12.62-5.28,18.57-7.86c2.39-1.04,3.62-3.22,3.79-5.6 c0.2-2.86,0.21-5.88-0.5-8.62c-1.78-6.92-7.23-10.09-13.96-7.76c-5.97,2.07-11.63,5.03-17.83,7.77 C393.35,229.49,396.51,236.51,399.88,244.01z"></path> <path class="st0" d="M387.09,317.69c-2.36,1.6-4.39,3.01-6.46,4.38c-6.82,4.5-13.7,8.92-20.46,13.53c-1.99,1.35-3.59,1.45-5.68,0.28 c-5.68-3.18-11.48-6.14-17.21-9.22c-1.45-0.78-2.69-1.07-4.15,0.17c-8.86,7.54-17.79,15.01-26.93,22.7 c1.84,4.43,3.63,8.74,5.43,13.05c1.17,2.81,2.33,5.63,3.53,8.43c0.66,1.55,0.57,2.83-0.64,4.17c-7.81,8.63-15.56,17.33-23.34,25.99 c-0.35,0.39-0.88,0.63-1.71,1.2c-1.12-2.39-2.24-4.57-3.19-6.83c-11.29-26.8-22.56-53.61-33.83-80.42 c-3.33-7.91-6.59-15.86-10.01-23.73c-0.86-1.97-0.7-3.25,0.97-4.68c12.96-11.07,25.87-22.22,38.8-33.33 c0.41-0.35,0.92-0.57,1.78-1.08C318.12,273.94,352.33,295.64,387.09,317.69z M310.61,310.61c-5.66-5-26.35-17.45-30.13-18.1 c4.43,10.41,8.79,20.66,13.41,31.51C299.81,319.26,305.18,314.96,310.61,310.61z"></path> <path class="st0" d="M424.7,916.98c0.51,33.28-22.36,53.81-46.09,59.29c-15.48,3.57-30.28,0.57-44.11-7.03 c-18.45-10.14-29.15-26-31.54-46.65c-2.3-19.87,4.87-36.76,19.99-50.01c9.29-8.14,20.15-13.29,32.36-14.94 c10.19-1.38,20.15,0.47,29.73,4.16c14.69,5.67,25.65,15.71,33.42,29.24C423.11,899.15,424.89,908.07,424.7,916.98z M391.66,912.19 c-0.21-6.22-1.51-12.19-5.41-17.14c-8.38-10.64-22.68-12.33-34.09-2.1c-7.92,7.1-13.36,16.06-14.64,26.83 c-1.8,15.09,2.48,21.39,14.25,27.43c6.4,3.29,12.99,2.06,19.19-0.99c8.84-4.35,13.82-12.15,17.77-20.71 C390.66,921.32,391.69,916.85,391.66,912.19z"></path> <path class="st0" d="M670.28,188.75c-1.22,3.46-2.19,6.32-3.22,9.15c-5.76,15.89-11.6,31.75-17.27,47.66 c-1.44,4.03-2.47,8.22-3.51,12.39c-1.94,7.75,0.95,13.31,8.27,16.38c3.35,1.4,6.73,2.48,10.44,2.26c2.98-0.18,5.21-1.31,6.91-3.87 c5.32-7.99,9.96-16.36,13.51-25.25c5.55-13.89,10.75-27.92,16.11-41.89c0.63-1.65,1.36-3.25,2.18-5.18 c12.19,4.08,22.83,10.67,34.52,15.18c-0.13,0.84-0.12,1.39-0.31,1.86c-6.25,15.4-12.45,30.83-18.8,46.19 c-4.3,10.39-9.43,20.33-15.58,29.8c-4.68,7.21-11.37,10.84-19.4,12.28c-12.86,2.31-25.41,0.43-37.56-3.97 c-8.91-3.23-17.16-7.82-24.28-14.17c-2.47-2.2-4.81-4.62-6.87-7.21c-7.04-8.85-9.7-18.64-7.06-29.97 c3.25-13.94,7.67-27.47,12.52-40.89c3.44-9.51,7.02-18.97,10.55-28.44c0.47-1.27,1.05-2.5,1.78-4.23 C645.57,180.79,657.62,184.67,670.28,188.75z"></path> <path class="st0" d="M828.64,469.24c-2.05-3.35-3.67-5.75-5.04-8.29c-4.47-8.29-8.79-16.67-13.32-24.94 c-0.99-1.8-0.48-3.15,0.32-4.64c5.07-9.39,10.15-18.78,15.21-28.17c2.35-4.36,4.66-8.75,6.67-13.46 c-6.33,3.42-11.88,7.87-17.6,12.08c-5.78,4.26-11.62,8.42-17.88,12.95c-7.18-9.63-14.02-18.8-21.09-28.28 c1.3-1.2,2.35-2.25,3.48-3.2c19.38-16.41,39.75-31.56,60.18-46.62c6.92-5.1,13.85-10.19,20.78-15.28c0.89-0.66,1.81-1.28,2.73-1.89 c1.68-1.11,3.02-0.86,4.26,0.81c3.14,4.23,6.38,8.39,9.56,12.59c3.5,4.62,6.99,9.26,10.66,14.12c-9.13,9.49-20.23,16.25-30.44,25.5 c4.75,0.73,8.62,1.5,12.52,1.88c7.17,0.7,14.36,1.17,21.55,1.76c3.59,0.29,7.17,0.67,10.76,0.96c2.23,0.18,3.93,1.09,5.02,3.13 c3.47,6.47,7.02,12.89,10.48,19.37c1.88,3.51,3.64,7.07,5.69,11.06c-3.25,0-5.96,0.14-8.65-0.03c-5.81-0.38-11.6-0.97-17.4-1.38 c-9.54-0.67-19.09-1.17-28.62-1.95c-2.91-0.24-4.6,0.77-6,3.22c-10.33,18.04-20.74,36.04-31.13,54.05 C830.63,465.86,829.87,467.13,828.64,469.24z"></path> <path class="st0" d="M148.2,434.27c6.99,3.95,13.07,8.67,19.41,13.98c-1.35,1.25-2.41,2.25-3.49,3.23 c-7.24,6.59-12.85,14.23-14.63,24.06c-0.63,3.5-1.09,7.33-0.34,10.72c1.61,7.3,5.91,9.7,12.31,5.31c1.99-1.37,3.66-3.42,5.01-5.47 c2.51-3.81,4.78-7.79,6.95-11.81c2.77-5.16,6.06-9.89,10.06-14.2c15.52-16.68,43.6-11.27,53.58,8.23c3.89,7.6,5.25,15.76,4.99,24.17 c-0.63,20.8-8.57,38.44-23.44,52.96c-1.68,1.64-3.6,3.04-5.41,4.55c-1.07,0.89-2.2,1.11-3.44,0.35 c-6.58-4.04-13.17-8.08-20.24-12.41c1.43-1.22,2.41-2.1,3.44-2.91c6.25-4.93,11.79-10.51,16.07-17.27 c2.77-4.38,4.75-9.07,5.76-14.16c0.69-3.51,0.29-6.93-1.07-10.18c-1.87-4.46-5.15-5.56-9.39-3.28c-3.26,1.75-5.8,4.32-7.69,7.44 c-2.37,3.91-4.59,7.91-6.74,11.94c-3.75,7.05-9.11,12.54-15.96,16.55c-8.77,5.13-18.11,5.32-27.21,1.52 c-13.86-5.8-21.59-16.71-23.06-31.56c-2.25-22.6,5.2-41.98,20.73-58.37C145.53,436.46,146.85,435.46,148.2,434.27z"></path> <path class="st0" d="M675.78,900.44c2.42,5.57,4.66,10.74,7.06,16.27c13.08-4.54,25.36-10.15,37.9-16.21 c4.46,6.3,7.27,13.15,10.42,20.35c-11.94,6.9-24.72,11.44-37.31,17.4c2.49,6.24,4.87,12.23,7.47,18.75 c15.46-6.6,30.43-12.99,45.78-19.53c4.26,6.85,7.58,13.94,11.22,20.79c-5.51,5.31-69.8,34.76-81.82,37.57 c-1.95-2.33-38.67-94.69-40.58-102.09c23.61-11.47,47.23-22.95,71.34-34.66c4.91,5.39,7.86,12.43,12.2,19.36 C704.75,885.84,690.36,893.09,675.78,900.44z"></path> <path class="st0" d="M838.92,862.63c5.79,5.96,11.17,11.5,16.49,16.98c-4.72,7.54-59.09,54.46-68.78,59.3 c-22.29-28.79-44.66-57.68-66.86-86.35c0.03-0.51,0.03-0.65,0.05-0.78c0.02-0.13,0.04-0.29,0.12-0.39c0.25-0.33,0.5-0.68,0.81-0.94 c19.65-16.49,38.75-33.59,57.19-52.12c6.74,4.13,11.44,10.19,17.54,15.28c-2.63,3.48-5.86,5.84-8.69,8.59 c-2.88,2.8-5.88,5.49-8.82,8.23c-2.94,2.74-5.89,5.48-8.83,8.22c-2.94,2.73-5.87,5.47-9.22,8.59c3.75,4.57,7.4,9,11.35,13.81 c10.95-8.39,21.48-16.87,31.37-25.97c4.02,2.09,11.25,9.57,15.97,16.49c-9.42,9.57-21.15,16.71-30.73,26.79 c4.02,5.49,7.47,11.12,12.56,15.95C813.27,883.76,825.87,873.39,838.92,862.63z"></path> <path class="st0" d="M955.05,523.3c-8.01-0.46-15.15-0.87-22.78-1.3c0.61-3.93,1.25-7.43,1.67-10.95c0.74-6.21,1.23-12.5-0.49-18.59 c-1-3.54-2.81-6.87-4.43-10.21c-0.52-1.08-1.52-1.98-2.45-2.79c-5.25-4.59-9.65-3.72-12.42,2.63c-0.98,2.24-1.73,4.76-1.82,7.18 c-0.17,4.69,0.2,9.41,0.36,14.11c0.15,4.29,0.46,8.58,0.44,12.87c-0.02,4.56-1.84,8.62-4.15,12.47c-0.5,0.83-1.02,1.65-1.51,2.49 c-5.03,8.48-12.11,13.99-22.15,15.02c-10.21,1.04-19.88-0.81-27.57-7.85c-17.73-16.23-28.59-45.25-19.83-71.01 c0.7-2.07,1.66-4.06,2.57-6.28c6.9,0,13.55-0.01,20.19,0.01c0.95,0,1.9,0.17,3.4,0.31c-0.47,1.64-0.83,3.05-1.27,4.43 c-2.99,9.39-4.37,18.98-2.01,28.66c0.93,3.83,2.76,7.55,4.79,10.96c2.42,4.07,5.5,5.06,9.48,4.01c3.65-0.97,5.86-3.44,6.03-7.96 c0.2-5.25,0.2-10.56-0.43-15.76c-0.96-7.95,0.24-15.49,3.12-22.8c5.99-15.24,21.82-22.76,38.21-18.12 c9.72,2.75,17.39,8.41,22.81,16.98c9.17,14.5,13.39,30.34,12.33,47.47C956.84,513.79,955.82,518.25,955.05,523.3z"></path> <path class="st0" d="M477.35,930.09c-1.38,6.1-2.65,11.73-3.99,17.68c13.45,4.63,27.35,5.49,41.26,8.67 c-1.32,8.69-2.59,17.1-3.91,25.82c-14.46-1.24-28.22-4.27-42.5-6.66c-3.89,12.13-5.72,24.64-10.26,36.65 c-12.33-1.71-24.11-4.37-36.01-9.05c8.86-36.16,17.78-72.09,26.81-108.07c26.81,4.93,53.14,9.77,79.88,14.68 c-1.02,9.21-2.03,18.36-3.1,28.07C509.23,935.67,493.59,932.25,477.35,930.09z"></path> <path class="st0" d="M621.61,897.73c1.85,9.25,3.65,18.3,5.56,27.83c-16.38,2.37-32.19,4.66-48.27,6.98 c0.56,6.25,1.07,11.98,1.62,18.08c14.25,0.49,27.75-2.97,41.91-4.25c1.39,8.78,2.72,17.18,4.09,25.86 c-14.15,3.15-28.03,4.53-42.28,6.51c-0.38,12.64,1.86,25.13,1.11,37.97c-12.18,2.56-24.25,2.97-36.29,2.48 c-1.43-4.16-8.12-107.34-7.31-111.23C568.19,904.57,594.63,901.18,621.61,897.73z"></path> <path class="st0" d="M842.31,305.62c-6.94,5.16-18.6,11.9-23.24,13.4c-0.42-1.53-0.84-3.06-1.26-4.59 c-3.21-11.6-9.37-20.98-20.46-26.43c-7.1-3.49-14.47-3.68-21.7-0.49c-8.99,3.96-15.47,10.62-19.57,19.53 c-2.68,5.82-2.7,11.82-0.61,17.82c4.41,12.65,13.76,19.72,26.35,22.97c2.75,0.71,5.61,1,8.64,1.52c-0.23,0.83-0.26,1.4-0.52,1.82 c-3.46,5.68-6.98,11.32-10.44,17c-1.15,1.89-2.45,2.45-4.8,2c-20.3-3.93-36.11-14.39-46.84-32.11c-6.08-10.04-7.97-21.22-7.13-32.79 c2.12-29.32,23.74-48.03,46.68-52.6c8.57-1.71,17.14-0.71,25.5,1.57c21.46,5.86,36.48,19.17,45.13,39.63 C839.66,297.69,840.88,301.65,842.31,305.62z"></path> <path class="st0" d="M316.25,855.37c-0.61-2.13-0.89-3.33-1.29-4.49c-4.36-12.64-12.58-21.33-25.67-24.97 c-4.71-1.31-9.34-0.63-13.87,0.93c-15.56,5.35-25.05,21.34-22.22,37.52c0.28,1.61,0.86,3.25,1.66,4.68 c6.59,11.81,16.38,18.9,30.06,20.15c1.66,0.15,3.32,0.28,4.97,0.48c0.38,0.05,0.73,0.33,1.47,0.68c-1.02,2.42-1.92,4.85-3.06,7.17 c-1.96,3.98-4.12,7.85-6.11,11.81c-0.92,1.83-2.2,2.63-4.3,2.44c-25.97-2.34-52.88-18.65-58.08-49.63 c-3.7-22.02,1.73-41.67,19.39-56.61c9.65-8.16,21.21-11.67,33.74-12.32c25.11-1.31,43.29,10.62,56.94,30.42 c3.54,5.14,5.31,11.52,7.77,17.37c0.67,1.6,0.66,3.29-1.29,4.27C329.8,848.55,323.26,851.84,316.25,855.37z"></path> <path class="st0" d="M282.75,413.06c-4.33,11.38-11.46,20.41-18.22,30.39c-23.37-14.39-46.35-28.94-69.7-43.37 c-6.65,8.41-11.16,17.81-17.02,26.87c-8.17-4.78-15.72-9.96-23.55-15.43c17.39-29.12,34.81-57.7,53.11-86.35 c8.25,4.84,16.19,9.49,24.39,14.3c-4.47,10.45-12.17,18.58-16.79,28.95C237.51,383.26,259.91,398.02,282.75,413.06z"></path> <path class="st0" d="M198.2,691.6c2.69,11.21,5.29,22.08,8.15,34c-1.8-0.96-2.85-1.4-3.76-2.03c-7.07-4.88-14.18-9.7-21.12-14.77 c-2.26-1.65-4.04-1.75-6.34-0.3c-6.67,4.21-13.42,8.31-20.17,12.4c-1.98,1.2-4.06,2.22-6.95,3.79c0.47-2.19,0.67-3.5,1.03-4.76 c2.4-8.38,4.73-16.79,7.31-25.12c0.74-2.39,0.29-3.82-1.66-5.3c-7.05-5.37-14.01-10.87-20.98-16.36c-1.15-0.91-2.18-1.98-4.05-3.7 c6.76-0.57,12.49-0.25,18.21-0.29c5.68-0.04,11.35-0.01,17.1-0.01c5.75-10.16,7.79-21.7,13.5-32.86c0.89,2.1,1.52,3.37,1.98,4.7 c2.6,7.59,5.14,15.21,7.73,22.8c1.33,3.91,1.35,3.92,5.55,3.96c9.28,0.09,18.57,0.16,27.85,0.26c0.92,0.01,1.85,0.2,3.43,0.39 c-2.69,3.54-5.98,5.55-8.79,8.03c-2.91,2.57-5.94,4.99-8.91,7.49C204.35,686.43,201.39,688.92,198.2,691.6z"></path> <path class="st0" d="M900.68,636.4c0.86,2.26,1.38,3.49,1.81,4.75c2.56,7.47,5.09,14.94,7.64,22.41c1.54,4.5,1.55,4.55,6.46,4.6 c8.73,0.08,17.47,0.08,26.21,0.14c1.22,0.01,2.44,0.11,4.53,0.21c-1.3,1.35-2.02,2.25-2.88,2.97c-7,5.9-13.96,11.84-21.07,17.59 c-2.33,1.89-3.08,3.61-2.23,6.7c2.41,8.81,4.37,17.74,6.5,26.63c0.19,0.78,0.26,1.58,0.45,2.84c-3.9-1.15-6.43-3.73-9.32-5.62 c-3.13-2.05-6.16-4.26-9.23-6.39c-2.95-2.05-5.9-4.1-8.85-6.14c-10.74,4.59-19.45,12.37-29.77,17.25c-0.27-0.2-0.54-0.39-0.82-0.59 c3.03-10.58,6.06-21.15,9.16-31.97c-3.16-2.49-6.18-4.89-9.23-7.27c-2.95-2.3-5.94-4.56-8.87-6.88c-2.97-2.36-6.08-4.59-9.38-8.1 c2.34-0.16,3.65-0.32,4.96-0.32c9.01-0.02,18.03-0.09,27.04,0.06c2.62,0.04,3.98-0.85,4.91-3.29c3.16-8.28,6.49-16.5,9.78-24.73 C898.99,639.92,899.66,638.63,900.68,636.4z"></path> <path d="M587.9,480.76c0.68,0.82,1.24,1.5,1.81,2.17c18.68,21.97,23.31,46.68,13.78,73.8c-2.93,8.34-7.03,16.27-10.74,24.32 c-3.42,7.44-6.87,14.86-8.21,23.03c-1.61,9.82-0.2,19.09,5.4,27.46c4.09,6.11,8.4,12.07,12.5,18.16c4.89,7.28,9.34,14.8,11.14,23.53 c2.06,9.99,0.54,19.34-5.6,27.66c-5.1,6.92-10.43,13.68-15.56,20.58c-4.4,5.91-8.37,12.09-11.12,18.97 c-4.63,11.57-4.66,22.98,1.29,34.13c3.92,7.34,8.01,14.58,11.94,21.91c4.41,8.21,8.32,16.62,9.89,25.91 c1.34,7.93,0.88,15.73-1.64,23.41c-0.66,2.02-1.53,3.26-3.86,3.67c-4.36,0.76-8.65,1.95-12.97,2.91c-0.63,0.14-1.32,0.02-1.9,0.02 c1.17-4.41,2.53-8.62,3.38-12.94c1.66-8.51,0.27-16.85-2.09-25.05c-2.86-9.92-7.49-19.07-12.27-28.16 c-3.03-5.77-6.18-11.48-9.14-17.28c-5.11-10.01-5.66-20.34-0.71-30.43c2.85-5.8,6.59-11.22,10.35-16.51 c4.34-6.1,9.25-11.78,13.71-17.8c3.9-5.26,6.96-10.99,8.83-17.33c2.25-7.66,1.86-15.17-1.66-22.28c-2.14-4.32-4.84-8.4-7.58-12.38 c-2.83-4.11-6.09-7.92-9.04-11.94c-3.29-4.48-6.44-9.11-7.96-14.52c-0.97-3.47-3.29-5.2-6.47-5.5c-2.83-0.27-5.78,0.03-8.6,0.53 c-2.71,0.48-5.3,1.58-7.97,2.34c-6.58,1.86-13.12,1.75-19.63-0.44c-2.75-0.93-5.51-1.94-8.35-2.46c-5.06-0.92-8.39,0.57-9.95,5.31 c-3.49,10.64-10.16,19.32-16.27,28.39c-2.7,4.01-5.27,8.18-7.31,12.56c-4.47,9.58-4.02,19.16,1.41,28.27 c2.62,4.4,5.61,8.59,8.66,12.7c4.21,5.68,8.8,11.08,12.92,16.83c2.57,3.59,4.85,7.45,6.8,11.41c4.48,9.11,5.31,18.67,1.93,28.28 c-2.16,6.13-4.78,12.11-7.54,18c-3.34,7.16-7.15,14.09-10.56,21.22c-3.12,6.52-5.5,13.3-6.65,20.49 c-1.35,8.44-0.41,16.57,2.84,24.46c0.52,1.26,1.08,2.5,1.93,4.48c-5.42-0.6-10.33-0.33-15.15-1.47c-2.47-0.58-4.38-2.07-4.93-4.57 c-0.83-3.78-1.51-7.61-1.91-11.46c-0.91-8.78,0.98-17.14,4.55-25.09c2.27-5.05,4.95-9.92,7.46-14.86 c3.33-6.54,6.97-12.95,9.97-19.64c7.44-16.59,5.18-32.49-4.38-47.52c-2.97-4.66-6.67-8.85-10.03-13.26 c-3.28-4.3-6.75-8.47-9.8-12.92c-7.96-11.59-8.89-24-3.26-36.75c2.29-5.17,5.3-10.04,8.25-14.89c3.6-5.92,7.76-11.51,11.16-17.54 c2.36-4.19,4.23-8.75,5.62-13.36c2.28-7.55,1.55-15.15-1.39-22.42c-3.89-9.64-8.09-19.15-12.06-28.76 c-3.93-9.49-7.43-19.11-8.86-29.37c-2.1-15.14,0.51-29.28,8.82-42.2c2.84-4.42,5.92-8.69,9.42-13.8c-1.56,0.69-2.42,0.92-3.11,1.39 c-12.36,8.33-19.67,20.17-23.06,34.42c-3.41,14.34-3.13,28.63,2.29,42.54c2.87,7.36,6,14.61,8.97,21.93 c2.82,6.94,5.37,13.95,6.42,21.45c1.56,11.15-1.13,21.19-7.55,30.3c-3.52,4.99-7.47,9.68-10.79,14.78 c-3.31,5.1-6.52,10.35-8.98,15.89c-5.1,11.48-4.5,23.07,1.56,34.04c2.86,5.18,6.56,9.93,10.13,14.69c4,5.32,8.4,10.34,12.42,15.64 c10.52,13.88,11.66,29.03,5.22,44.81c-2.34,5.74-5.64,11.11-8.64,16.57c-3.48,6.31-7.34,12.42-10.64,18.82 c-3.99,7.76-6.14,16.06-5.45,24.88c0.23,2.99,0.82,5.95,1.29,9.28c-0.99-0.21-1.76-0.3-2.49-0.53c-4.1-1.28-8.14-2.78-12.3-3.85 c-2.8-0.72-3.71-2.43-3.95-5c-0.58-6.3-0.35-12.55,2.18-18.4c2.14-4.94,4.59-9.78,7.3-14.44c3.68-6.35,7.89-12.4,11.59-18.75 c5.78-9.91,7.65-20.71,6.4-32.05c-0.65-5.92-2.98-11.29-6.36-16.09c-3.51-4.98-7.42-9.67-11.21-14.45c-3.18-4.02-6.58-7.89-9.64-12 c-10.21-13.73-11.14-28.68-4.79-44.1c2.35-5.71,5.88-10.99,9.28-16.19c4.25-6.5,8.88-12.74,13.41-19.04 c8.34-11.59,9.03-24.11,4.45-37.2c-1.55-4.44-3.5-8.75-5.37-13.07c-1.49-3.43-3.08-6.82-4.72-10.19 c-6.32-12.97-7.31-26.54-4.85-40.59c2.44-13.93,7.7-26.57,16.44-37.73c0.51-0.65,0.96-1.34,1.96-2.75 c-1.68,0.72-2.67,1.02-3.54,1.52c-4.16,2.37-7.67,5.52-10.48,9.36c-9.06,12.37-13.89,26.48-16.09,41.44 c-1.27,8.64,0.85,17.13,3.53,25.35c2.63,8.03,5.63,15.95,8.18,24c1.37,4.34,2.38,8.83,3.14,13.33c2.11,12.62-1.86,23.43-9.96,33.1 c-4.71,5.62-9.21,11.46-13.35,17.52c-4.72,6.91-8.09,14.48-9.44,22.88c-1.14,7.07-0.52,13.94,2.51,20.33 c2.55,5.35,5.61,10.52,8.99,15.39c4.1,5.92,8.81,11.42,13.17,17.16c3.95,5.2,7.51,10.64,9.9,16.78c3.32,8.55,3.51,17.16-0.29,25.49 c-2.75,6.03-6.1,11.8-9.47,17.53c-2.6,4.41-5.71,8.52-8.47,12.85c-5.43,8.52-9.68,17.47-9.78,27.88c0,0.36-0.27,0.72-0.51,1.34 c-4.87-1.51-9.29-3.69-13.1-6.92c-0.76-0.64-1.23-2.27-1.03-3.29c0.77-3.92,1.41-7.97,2.95-11.61c1.88-4.44,4.45-8.61,7.02-12.71 c3.39-5.4,7.17-10.55,10.57-15.95c3.12-4.95,5.5-10.22,6.37-16.12c1.05-7.09-0.9-13.38-4.83-19.97c-0.53,1.46-1.02,2.36-1.18,3.32 c-0.6,3.55-1.31,7.11-1.58,10.69c-0.41,5.39-2.12,10.3-4.78,14.91c-2.84,4.92-5.74,9.82-8.77,14.62 c-5.7,9.02-11.61,17.91-14.97,28.61c-10.49-4.31-18.73-11.02-26.75-19c3.73-2.32,7.08-4.41,10.51-6.54c-1.22-4.38-4-7.31-6.73-10.2 c-0.6-0.64-2.11-0.82-3.08-0.63c-2.29,0.45-4.55,1.14-6.74,1.96c-1.94,0.73-3.75,1.8-5.63,2.67c-1.2,0.56-2.31,0.63-3.44-0.39 c-4.3-3.9-8.83-7.58-12.2-12.53c1.06-3.05,3.66-4.11,6.31-4.87c2.79-0.8,5.68-1.27,8.52-1.89c6.77-1.48,7.81-4.23,3.82-9.78 c-1.48-2.06-3.4-3.2-5.82-3.63c-3.38-0.6-6.67-0.18-9.75,1.26c-3.01,1.4-5.91,3.05-8.86,4.58c-1.45,0.76-2.91,1.51-4.54,2.35 c-3.77-4.75-7.37-9.28-11.26-14.19c6.94-4.4,13.17-9.21,20.88-11.44c0.93-0.27,1.88-0.52,2.83-0.67c7.05-1.13,7.85-0.6,10.25,6.15 c0.83,2.34,1.76,4.68,2.98,6.83c1.4,2.47,3.54,3.58,6.63,3.13c5.26-0.76,10.3-2.08,15.1-4.39c12.15-5.84,21.71-15.18,32.36-23.41 c-1.24-2.08-2.32-3.83-3.34-5.6c-5.61-9.7-9.83-19.86-10.69-31.2c-0.52-6.91,0.53-13.53,3.17-19.93 c3.08-7.48,7.29-14.31,11.75-21.02c4.21-6.35,8.42-12.73,12.22-19.33c4.15-7.21,6.54-15.07,5.65-23.49 c-0.43-4.09-1.32-8.23-2.71-12.1c-3.57-9.96-6.44-20.06-7.69-30.58c-1.55-12.93-1.21-25.74,2.79-38.28 c2.21-6.93,5.58-13.25,10.48-19.73c-1.57,0.46-2.43,0.57-3.15,0.95c-5.18,2.81-8.68,7.25-11.57,12.23 c-10.11,17.41-13.47,35.8-8.69,55.64c2.4,9.95,4.08,20.09,5.86,30.18c1.02,5.79,0.53,11.63-0.57,17.38 c-0.33,1.73-1.03,3.48-1.91,5.01c-3.78,6.62-7.76,13.13-11.54,19.75c-3.64,6.38-7.28,12.76-10.63,19.3 c-3.24,6.32-5.35,13.09-6.38,20.13c-0.24,1.65-0.84,2.77-2.18,3.75c-4.04,2.93-7.99,5.99-11.98,8.99 c-7.01,5.27-14.64,8.42-23.64,6.9c-0.5-0.09-1.05,0.07-1.81,0.13c-0.75,5.33,0.98,10.21,1.97,15.48c-0.89,0.19-1.76,0.46-2.64,0.55 c-5.63,0.57-10.74,2.61-15.59,5.43c-4.08,2.37-8.11,4.81-12.25,7.06c-4.22,2.3-6.13,1.98-8.64-2.09c-2.08-3.39-3.5-7.18-5.32-11.03 c1.13-0.65,1.92-1.11,2.71-1.57c4.29-2.54,8.59-5.07,12.86-7.63c3.21-1.92,6.23-4.26,9.63-5.73c4.15-1.79,8.6-2.86,13.03-3.98 c1.54-1.2,1.31-3.04,1-4.8c-0.37-2.04-0.94-4.05-1.5-6.05c-0.92-3.28-1.54-4.08-4.83-3.84c-3.12,0.23-6.38,0.83-9.21,2.08 c-4.16,1.84-8.01,4.38-11.95,6.69c-3.11,1.83-6.1,3.86-9.24,5.61c-1.8,1-3.75,1.82-5.73,2.41c-4.45,1.33-7.59-0.07-9.52-4.31 c-1.85-4.08-2.47-8.44-2.53-13.29c10.97-1.07,19.76-6.96,28.73-12.44c6.66-4.07,13.55-7.6,21.8-8.62c0-4.66,0-9.17,0-13.92 c-4.07-0.92-8.19-0.35-12.05,1.14c-4.77,1.84-9.37,4.12-13.96,6.37c-4.6,2.26-9.01,4.93-13.67,7.05c-5.21,2.37-10.72,3.65-16.97,2.8 c-1.52-5.99-3.03-11.99-4.63-18.28c0.97-0.2,1.72-0.49,2.48-0.5c7.51-0.08,14.52-2.15,21.13-5.54c5.06-2.59,10-5.4,14.98-8.14 c7.33-4.02,14.84-7.58,23.32-8.32c1.92-0.17,2.61-1.34,3.22-2.75c1.79-4.13,2.27-8.49,2.45-13.01c-2.34-1.29-4.71-0.83-7-0.63 c-5.87,0.52-11.38,2.37-16.67,4.9c-6.38,3.04-12.67,6.27-19.06,9.27c-4.92,2.31-10.12,3.79-15.57,4.2 c-4.32,0.32-8.54-0.13-12.97-1.67c-0.58-7.49-1.16-14.91-1.77-22.81c2.44,0.61,4.38,1.14,6.34,1.57c9.29,2.04,18.26,0.52,26.89-2.93 c6.42-2.57,12.6-5.74,18.85-8.71c2.88-1.37,5.73-2.8,8.51-4.36c4.7-2.63,9.6-4.04,15.07-3.97c5.21,0.07,6.23-1.01,8.14-5.89 c0.7-1.79,1.86-3.4,2.69-5.16c1.63-3.44,0.47-5.71-3.33-6.18c-5.46-0.67-10.86,0.04-15.97,1.94c-5.18,1.92-10.22,4.25-15.23,6.61 c-5.77,2.71-11.33,5.87-17.16,8.43c-7.64,3.36-15.62,4.82-23.93,2.76c-1.47-0.37-2.89-0.96-4.36-1.35 c-5.91-1.55-7.66-6.16-6.88-11.05c1.89-11.9,3.11-23.95,5.7-35.7c10.95-49.59,33.63-93.12,68.74-129.97 c18.82-19.74,40.53-35.61,64.56-48.56c18.79-10.13,38.28-18.15,59.03-23.12c27.32-6.53,54.98-8.72,83-6.86 c27.59,1.83,54.32,7.44,80.04,17.7c14.87,5.94,28.64,13.84,42.02,22.63c14.89,9.78,28.93,20.56,41.78,32.89 c31.11,29.85,53.87,64.99,67.11,106.12c6.02,18.68,9.58,37.87,11.49,57.38c0.37,3.73,0.41,7.5,1.03,11.18 c0.48,2.86-0.69,4.25-2.93,5.64c-8.03,4.98-16.58,6.44-25.49,3.33c-5.59-1.95-10.9-4.74-16.24-7.35c-5.97-2.91-11.73-6.3-17.78-9.01 c-7.39-3.31-15.17-4.27-23.15-2.17c-0.39,0.1-0.75,0.33-1.51,0.68c1.16,4.66,2.38,9.3,5.31,13.25c0.62,0.84,2.06,1.45,3.15,1.5 c8.79,0.39,16.78,3.45,24.57,7.18c5.88,2.81,11.65,5.85,17.56,8.58c6.71,3.1,13.67,5.58,21.18,5.36c3.7-0.11,7.39-0.91,11.07-1.46 c1.2-0.18,2.37-0.56,3.93-0.94c-0.18,6.92,0.8,13.54-0.74,20.15c-0.57,2.45-1.63,3.69-4.29,4.17c-6.34,1.15-12.52,0.6-18.42-1.63 c-5.69-2.15-11.2-4.79-16.68-7.43c-6.87-3.31-13.62-6.86-21.23-8.27c-3.73-0.69-7.95-0.68-11.82,0.2c0.93,4.71,1.86,9.42,2.81,14.26 c2.76,0.48,5.46,0.58,7.89,1.45c5.33,1.89,10.64,3.94,15.75,6.36c4.37,2.07,8.45,4.77,12.68,7.14c8.66,4.85,17.61,8.82,28.19,8.63 c-0.73,5.11-1.17,10.03-2.18,14.82c-1.04,4.89-3.92,6.49-8.68,4.73c-6.21-2.31-12.32-4.94-18.32-7.76 c-4.63-2.18-8.95-5.01-13.53-7.32c-5.36-2.7-11.03-4.44-17.46-4.5c-2.37,4.48-0.94,9.22-1.31,14.01c1.21,0.35,2.28,0.56,3.28,0.96 c5.38,2.18,10.81,4.25,16.07,6.69c3.63,1.69,6.98,3.98,10.51,5.9c3.41,1.85,6.81,3.75,10.37,5.27c3.55,1.51,7.29,2.55,11.37,3.95 c-1.3,5.42-2.74,10.8-6.43,15.35c-1.42,1.75-2.93,2.33-5.06,1.3c-4.97-2.43-10-4.73-14.97-7.17c-4.47-2.2-8.81-4.69-13.36-6.72 c-3.92-1.75-8.1-2.77-12.98-2.29c-0.95,4.24-1.91,8.5-2.92,13.06c1.21,0.23,2.24,0.44,3.28,0.62c6.57,1.14,12.18,4.4,17.73,7.88 c5.97,3.74,12.07,7.27,18.77,11.29c0.07,5.66-4.59,9.8-7.67,15.1c-2.11-0.81-4.08-1.41-5.91-2.31c-3.11-1.52-6.17-3.17-9.18-4.88 c-6.44-3.67-13.1-6.64-21.01-6.58c-0.58-2.95,0.63-5.54,0.96-8.2c0.34-2.7,0.6-5.42,0.93-8.41c-1.25,0-1.91-0.09-2.53,0.01 c-6.52,1.03-12.39-0.63-17.73-4.32c-2.28-1.57-4.49-3.26-6.63-5.02c-2.78-2.29-5.29-4.97-8.24-7c-3.05-2.1-4.17-4.75-4.45-8.29 c-0.47-6.17-2.59-11.95-5.57-17.3c-3.38-6.04-7.16-11.86-10.79-17.76c-3.26-5.31-6.69-10.53-9.79-15.94 c-2.77-4.83-4.61-10.05-5.63-15.57c-1.35-7.32-0.5-14.4,2.21-21.23c9.96-25.07,7.8-49.66-2.74-73.95 c-2.99-6.88-8.54-11.25-15.19-14.71c0.56,1.35,1.08,2.72,1.68,4.04c4.1,8.95,8.03,17.96,10.17,27.65 c1.75,7.95,1.74,15.85,0.84,23.95c-1.17,10.57-4.22,20.6-7.17,30.72c-1.43,4.9-2.47,9.95-3.31,14.99 c-1.25,7.52,0.26,14.69,4.15,21.2c3.98,6.66,8.36,13.08,12.42,19.7c3.7,6.02,7.4,12.05,10.73,18.28c2.95,5.52,4.78,11.48,5.63,17.74 c1.27,9.4-0.39,18.21-4.81,26.55c-1.62,3.06-3.45,6.02-4.98,9.12c-1.21,2.45-2.11,5.06-3.22,7.8c10.69,8.89,20.47,18.45,33.26,23.71 c4.31,1.77,9.02,2.58,13.56,3.77c2.55,0.67,4.28-0.47,5.34-2.76c0.52-1.13,1.04-2.27,1.46-3.44c0.56-1.56,1.02-3.17,1.55-4.74 c2.44-7.26,5.02-8.27,11.7-4.79c6.03,3.13,12.12,6.13,18.18,9.2c1.22,0.62,2.4,1.3,3.87,2.09c-1.92,6.1-5.99,10.35-10.57,14.7 c-1.97-0.95-3.94-1.87-5.89-2.83c-4.62-2.26-9.3-4.33-14.45-5.08c-5.9-0.86-6.19-1.34-9.83,4.94c-0.92,1.59-1.12,3.6-1.73,5.7 c7.31,1.85,13.93,4.12,19.8,8.77c-2.94,6.04-8.19,9.72-12.95,14.11c-5.58-1.96-11.03-3.87-16.82-5.9c-2.07,2.68-4.31,5.15-6.04,7.94 c-1.7,2.75-1.05,4.01,1.79,5.58c2.76,1.53,5.45,3.2,8.8,5.17c-7.59,8.17-16.54,13.21-25.22,18.4c-0.53-0.39-0.87-0.5-0.95-0.71 c-3.13-8.68-7.93-16.46-12.91-24.15c-3.39-5.24-6.77-10.49-9.91-15.88c-5.34-9.15-8.46-18.96-8.06-29.7c0.01-0.4-0.12-0.81-0.21-1.2 c-0.03-0.13-0.15-0.23-0.43-0.63c-0.59,0.42-1.36,0.72-1.72,1.28c-1.95,2.99-2.79,6.39-2.8,9.88c0,4.57,0.26,9.15,0.64,13.7 c0.12,1.46,0.76,2.97,1.5,4.27c2.79,4.94,5.64,9.86,8.62,14.69c3.2,5.19,6.71,10.2,9.83,15.43c2.92,4.9,4.94,10.18,6.31,15.76 c0.75,3.03-0.4,4.8-2.61,6.31c-3.47,2.37-7.42,3.56-11.71,4.76c-0.44-13.24-6.61-24.03-13.29-34.63c-2.96-4.69-6.02-9.33-8.77-14.14 c-2.26-3.96-4.38-8.05-6.12-12.26c-5.1-12.41-3.12-23.83,5.12-34.35c5.3-6.76,10.59-13.55,15.55-20.56 c3.67-5.19,7.22-10.56,10.05-16.23c5.61-11.23,5.64-22.79-0.03-34.04c-2.61-5.18-5.83-10.07-9.04-14.91 c-3.84-5.77-8.09-11.27-11.93-17.03c-3.64-5.45-6.31-11.37-7.67-17.85c-1.16-5.54-1.08-10.99,0.52-16.44 c3.36-11.43,6.75-22.86,9.94-34.34c2.16-7.78,3.26-15.73,3.11-23.84c-0.13-7.17-1.52-14.04-4.33-20.62 c-1.85-4.33-3.61-8.72-5.78-12.88c-3.3-6.34-7.75-11.83-13.55-16.1c-1.52-1.12-3.19-2.02-5.32-2.45c0.82,1.17,1.65,2.33,2.45,3.51 c15.3,22.57,19.54,47.02,12.2,73.32c-1.07,3.83-3.01,7.43-4.68,11.08c-3.64,7.94-7.39,15.84-8.95,24.54 c-1.66,9.23-0.57,17.91,4.8,25.87c5.59,8.27,11.11,16.59,16.48,25.01c4.57,7.16,8.28,14.73,10.19,23.1 c1.74,7.64,1.52,15.16-1.16,22.52c-0.94,2.57-2.15,5.15-3.73,7.37c-5.54,7.8-11.37,15.4-16.94,23.18c-4.29,5.99-8,12.33-10.43,19.34 c-4.35,12.57-3.25,24.54,3.99,35.83c4.27,6.65,8.68,13.22,12.76,19.98c4.4,7.28,8.03,14.95,8.75,23.58 c0.32,3.82,0.05,7.69,0.05,11.73c-6.06,2.04-11.67,3.93-17.69,5.95c0-1.09-0.13-1.87,0.02-2.59c2-9.43,0.83-18.59-3.17-27.21 c-3.2-6.9-7.11-13.47-10.76-20.15c-3.33-6.08-6.97-11.99-10.06-18.18c-3.31-6.65-5.07-13.76-4.66-21.31 c0.4-7.4,2.7-14.18,6.96-20.17c4.09-5.76,8.66-11.17,12.81-16.9c4.06-5.61,8.25-11.18,11.7-17.17c8.14-14.14,7.72-28.34-1.11-42.07 c-3.29-5.12-7.15-9.87-10.73-14.81c-2.68-3.7-5.46-7.35-7.96-11.17c-2.83-4.32-4.58-9.11-5.71-14.19 c-1.38-6.21-0.34-12.2,1.45-18.04c2.8-9.13,5.92-18.18,9.08-27.2c3.3-9.42,6.83-18.78,8.27-28.72c3.72-25.81-5.61-46.13-26.16-61.66 c-0.55-0.42-1.15-0.78-1.77-1.09C588.83,480.53,588.52,480.68,587.9,480.76z M585.05,376.81c-1.92-0.12-3.7-0.25-5.48-0.35 c-7.62-0.41-15.23-0.89-22.85-1.16c-2.58-0.09-4.09-1.12-5-3.46c-0.95-2.45-2.08-4.84-3.11-7.26c-2.06-4.84-4.04-9.72-6.2-14.52 c-0.75-1.67-1.93-3.16-3.4-5.49c-4.93,10.91-9.48,20.96-14.01,31c-10.97,0.66-21.55,1.3-31.94,1.92c-0.93,2.39,0.61,3.21,1.7,4.19 c6.67,6.06,13.37,12.1,20.06,18.14c1.13,1.02,2.34,1.92,1.81,3.82c-2.32,8.41-4.26,16.96-8.67,24.62c-1.14,1.99-2.57,3.81-3.93,5.8 c-2.94-1.77-5.42-3.27-7.91-4.77c-10.55-6.39-21.08-12.84-32.53-17.54c-3.31-1.36-6.83-2.23-10.29-3.18 c-1.92-0.53-3.81-0.23-5.76,1.13c4.51,11,11.36,21.29,10.51,34.2c-3.55-0.25-6.26-1.66-8.92-3.04c-6.95-3.61-14.43-5.69-21.97-7.5 c-3.11-0.75-6.42-1.18-9.97,0.45c11.67,16.43,21.13,33.56,24.72,53.26c0.61,0,0.91,0.08,1.15-0.01c1.03-0.41,2.04-0.86,3.04-1.32 c24.76-11.34,50.53-19,77.75-21.38c24.41-2.13,48.54-0.6,72,6.73c13.07,4.08,25.82,9.2,38.72,13.84c1.23,0.44,2.49,0.83,4.06,1.35 c0.76-13.15,5.81-24.34,11.98-35.12c3.03-5.29,6.17-10.53,9.22-15.8c0.59-1.03,1.03-2.14,1.75-3.67c-5.09-0.17-9.58,0.43-13.91,1.87 c-5.25,1.75-10.41,3.78-15.61,5.67c-3.36,1.22-6.72,2.43-10.25,3.7c-0.83-3.18-0.53-5.94,0.32-8.55c1.74-5.4,3.75-10.71,5.6-16.08 c1.11-3.23,2.15-6.49,3.41-10.34c-2.34,0.19-3.97,0.23-5.57,0.48c-7.87,1.23-15.4,3.68-22.38,7.44c-8.42,4.52-16.6,9.48-24.88,14.25 c-1.42,0.82-2.84,1.62-4.64,2.64c-4.24-10.3-8.33-20.23-12.5-30.37c1.24-1.13,2.27-2.04,3.27-2.98 c6.14-5.82,12.27-11.65,18.41-17.47C584.13,380.68,585.61,379.54,585.05,376.81z M589.59,505.35c0.03-0.84,0.41-2.12,0.06-3.16 c-2.09-6.4-4.76-12.58-10.48-16.57c-3.72-2.59-7.72-4.94-11.89-6.7c-12.11-5.1-24.91-4.78-37.68-3.89 c-6.11,0.43-12.03,1.88-17.68,4.34c-8.76,3.82-15.13,10.01-19.39,18.57c-1.88,3.77-0.62,7.57,4.29,6.9 c4.5-0.62,9.14-0.36,13.71-0.21c4.92,0.16,9.59,1.46,13.72,4.25c2.95,2,5.46,4.28,5.04,8.38c-0.1,0.93,0.32,1.91,0.42,2.87 c0.38,3.58,0.9,7.15,1.02,10.74c0.1,3.01-1.02,5.7-3.42,7.72c-1.3,1.09-2.49,1.45-4.08,0.36c-2.92-2.01-6.2-2.13-9.59-1.38 c-2.3,0.51-4.63,0.88-6.95,1.29c-3.38,0.6-6.55,0.17-9.64-1.5c-3.74-2.02-6.33-1.26-8.26,2.48c-0.79,1.52-1.11,3.43-1.14,5.17 c-0.43,21.49,7.59,39.4,23.11,54.11c5.99,5.68,12.97,9.23,21.07,10.96c10.2,2.17,19.47,0.75,28.08-5.34 c6.79-4.8,12.41-10.63,16.82-17.64c6.89-10.96,10.96-23.02,13.13-35.67c0.58-3.39-0.18-7.19-1.05-10.62c-0.95-3.77-3.24-4.43-7-3.26 c-2.22,0.69-4.6,1.31-6.89,1.24c-3.85-0.12-7.73-0.62-11.52-1.33c-5.15-0.96-5.35-1.03-8.25,3.2c-1.33,1.93-2.46,4.06-5.03,4.64 c-2.35-0.86-3.6-2.53-3.8-4.95c-0.44-5.09-1.1-10.19-1.16-15.29c-0.05-3.9,1.15-7.68,3.27-11.04c1.49-2.36,3.23-4.46,6.02-5.48 c5.76-2.1,11.63-3.86,17.78-3.93C577.84,504.54,583.46,505.06,589.59,505.35z M653.02,497.22c20.72,11.49,35.92,28.16,48.6,47.3 c1.27,0,2.38,0.05,3.47-0.01c15.12-0.87,29.59,1.21,42.76,9.32c1.29,0.8,2.67,1.48,4.05,2.12c4.28,1.96,8.52,4.02,12.9,5.75 c4.83,1.91,9.93,2.62,15.11,1.99c4.25-0.52,8.27-1.73,11.7-4.78c-1.61-2.57-3.03-4.95-4.55-7.25c-4.5-6.83-9.26-13.5-13.49-20.49 c-5.01-8.29-10.06-16.62-14.21-25.35c-6.89-14.47-9.4-29.78-6.41-45.76c0.42-2.24,0.52-4.48-1.62-6.05 c-2.22-1.63-4.01,0.05-5.67,1.04c-11.68,7.02-19.42,17.14-23.3,30.18c-1.26,4.25-2.24,8.58-3.43,12.85 c-0.4,1.42-1.05,2.76-1.66,4.31c-4.88-2.3-9.32-4.52-13.87-6.51c-8.3-3.62-16.88-6.29-26.04-6.55c-6.12-0.18-12.2,0.22-18.11,1.95 C656.39,492.11,653.97,493.59,653.02,497.22z M361.12,501.26c-0.34-1.98-0.64-3.6-0.91-5.22c-2.6-15.58-9.35-28.9-21.48-39.26 c-1.26-1.07-2.63-2.04-4.06-2.87c-1.67-0.97-3.5-2.07-5.41-0.7c-1.71,1.23-0.8,3.11-0.61,4.65c0.99,7.77,0.7,15.48-0.59,23.19 c-2.21,13.18-7.28,25.3-14.11,36.63c-6.94,11.51-14.4,22.7-21.63,34.03c-1.54,2.42-3.04,4.88-4.84,7.76 c2.52,1.09,4.56,2.34,6.78,2.88c7.03,1.72,14.11,1.5,20.81-1.27c7.04-2.9,13.84-6.35,20.79-9.47c9.52-4.27,19.24-7.91,29.84-8.24 c4.13-0.13,8.27-0.02,12.9-0.02c-0.18,0.19,0.15-0.08,0.38-0.41c11.43-16.37,24.41-31.19,41.49-42.01c2.39-1.51,4.35-3.71,6.91-5.93 c-2.2-1.2-3.71-2.16-5.33-2.87c-6.76-2.98-13.84-3.8-21.15-3.02c-9.59,1.02-18.65,4.03-27.6,7.43 C369.34,498.07,365.38,499.62,361.12,501.26z M518.06,525.62c-0.33-3.12-0.35-3.36-2.21-5c-6.47-5.73-14.1-6.57-22.14-4.75 c-1.32,0.3-2.71,1.91-3.33,3.26c-0.58,1.26-0.42,3.03-0.13,4.47c0.25,1.23,0.88,2.72,1.84,3.38c1.31,0.91,2.51-0.25,3.52-1.3 c2.15-2.24,4.89-3.22,7.91-2.81c3.4,0.46,6.75,1.29,10.13,1.95C515.07,525.1,516.5,525.34,518.06,525.62z M586.98,526.74 c3.49-3.74,2.96-7.45-1.44-9.59c-0.98-0.48-2.07-0.72-3.13-1c-6.8-1.77-13.1,0.6-19.34,2.65c-3.18,1.04-3.45,3.16-1.44,6.6 c3.89-2.54,8.26-3.15,12.68-2.22C578.59,524.06,582.76,525.52,586.98,526.74z"></path> <path d="M533.8,254.07c-1.39-7.7-1.59-14.67-0.99-22.13c6.17,0,12.11-0.43,17.96,0.12c5.73,0.54,8.64,4.45,8.5,9.86 c-0.16,6.15-3.45,10.49-8.99,11.11C544.95,253.63,539.57,253.73,533.8,254.07z"></path> <path d="M531.28,209.75c0.21-6.77-1.9-12.77-1.13-19.45c5.88,0,11.52-0.3,17.11,0.1c4.01,0.29,6.23,2.8,6.79,6.18 c0.86,5.22-0.32,8.88-4.01,10.82c-2.15,1.13-4.61,2.01-7,2.25C539.36,210.02,535.62,209.75,531.28,209.75z"></path> <path d="M399.88,244.01c-3.38-7.5-6.54-14.53-9.93-22.07c6.2-2.75,11.86-5.71,17.83-7.77c6.73-2.33,12.18,0.84,13.96,7.76 c0.71,2.74,0.7,5.77,0.5,8.62c-0.17,2.38-1.4,4.57-3.79,5.6C412.51,238.73,406.52,241.21,399.88,244.01z"></path> <path d="M310.61,310.61c-5.43,4.36-10.8,8.66-16.73,13.41c-4.62-10.86-8.98-21.11-13.41-31.51 C284.26,293.16,304.95,305.61,310.61,310.61z"></path> <path d="M391.66,912.19c0.03,4.67-1,9.13-2.93,13.31c-3.95,8.56-8.94,16.36-17.77,20.71c-6.21,3.06-12.8,4.28-19.19,0.99 c-11.76-6.04-16.04-12.34-14.25-27.43c1.28-10.77,6.72-19.73,14.64-26.83c11.41-10.22,25.7-8.54,34.09,2.1 C390.15,899.99,391.45,905.97,391.66,912.19z"></path> <path class="st0" d="M585.05,376.81c0.56,2.74-0.91,3.87-2.21,5.1c-6.14,5.82-12.27,11.65-18.41,17.47c-1,0.95-2.03,1.85-3.27,2.98 c4.18,10.14,8.26,20.07,12.5,30.37c1.8-1.02,3.23-1.83,4.64-2.64c8.28-4.77,16.47-9.73,24.88-14.25c6.99-3.75,14.51-6.21,22.38-7.44 c1.6-0.25,3.23-0.28,5.57-0.48c-1.27,3.85-2.3,7.11-3.41,10.34c-1.85,5.36-3.85,10.68-5.6,16.08c-0.84,2.61-1.14,5.37-0.32,8.55 c3.53-1.27,6.89-2.47,10.25-3.7c5.2-1.9,10.36-3.93,15.61-5.67c4.32-1.44,8.81-2.04,13.91-1.87c-0.72,1.53-1.16,2.65-1.75,3.67 c-3.05,5.28-6.19,10.51-9.22,15.8c-6.17,10.78-11.22,21.97-11.98,35.12c-1.57-0.52-2.83-0.91-4.06-1.35 c-12.9-4.64-25.64-9.76-38.72-13.84c-23.46-7.32-47.59-8.86-72-6.73c-27.22,2.38-52.99,10.04-77.75,21.38 c-1.01,0.46-2.02,0.91-3.04,1.32c-0.24,0.1-0.54,0.01-1.15,0.01c-3.58-19.7-13.04-36.83-24.72-53.26c3.55-1.63,6.86-1.2,9.97-0.45 c7.54,1.81,15.01,3.89,21.97,7.5c2.66,1.38,5.37,2.79,8.92,3.04c0.85-12.91-6-23.2-10.51-34.2c1.95-1.37,3.84-1.66,5.76-1.13 c3.46,0.95,6.98,1.82,10.29,3.18c11.45,4.69,21.98,11.15,32.53,17.54c2.49,1.5,4.97,3,7.91,4.77c1.35-1.98,2.78-3.81,3.93-5.8 c4.41-7.67,6.35-16.21,8.67-24.62c0.52-1.89-0.68-2.79-1.81-3.82c-6.69-6.04-13.39-12.08-20.06-18.14c-1.08-0.98-2.63-1.8-1.7-4.19 c10.39-0.62,20.97-1.26,31.94-1.92c4.54-10.04,9.08-20.08,14.01-31c1.46,2.33,2.65,3.81,3.4,5.49c2.16,4.8,4.14,9.68,6.2,14.52 c1.03,2.42,2.16,4.81,3.11,7.26c0.91,2.34,2.42,3.37,5,3.46c7.62,0.27,15.23,0.75,22.85,1.16 C581.35,376.56,583.13,376.69,585.05,376.81z M564.31,440.06c-4.91-5.74-19.2-16.19-26.62-19.49c-2.33,1.77-4.76,3.59-7.17,5.43 c-4.84,3.69-9.7,7.35-14.5,11.09c-2.33,1.82-2.45,3.08-0.36,5.01c0.83,0.76,2.09,1.28,3.22,1.43c1.48,0.2,3.03-0.1,4.55-0.14 c12.02-0.36,24.03-1.86,36.06-0.52C561.82,443.13,563.1,441.98,564.31,440.06z"></path> <path class="st0" d="M589.59,505.35c-6.13-0.29-11.76-0.81-17.38-0.75c-6.14,0.07-12.02,1.82-17.78,3.93 c-2.8,1.02-4.53,3.12-6.02,5.48c-2.12,3.36-3.32,7.14-3.27,11.04c0.07,5.1,0.73,10.19,1.16,15.29c0.21,2.43,1.46,4.09,3.8,4.95 c2.56-0.59,3.7-2.71,5.03-4.64c2.9-4.23,3.1-4.16,8.25-3.2c3.8,0.71,7.67,1.2,11.52,1.33c2.29,0.07,4.67-0.55,6.89-1.24 c3.76-1.17,6.05-0.5,7,3.26c0.87,3.43,1.63,7.22,1.05,10.62c-2.17,12.65-6.23,24.71-13.13,35.67c-4.41,7.01-10.02,12.84-16.82,17.64 c-8.61,6.09-17.88,7.51-28.08,5.34c-8.11-1.73-15.08-5.27-21.07-10.96c-15.52-14.71-23.54-32.62-23.11-54.11 c0.03-1.74,0.35-3.65,1.14-5.17c1.94-3.73,4.53-4.5,8.26-2.48c3.1,1.67,6.26,2.11,9.64,1.5c2.32-0.41,4.65-0.78,6.95-1.29 c3.39-0.75,6.67-0.63,9.59,1.38c1.6,1.1,2.78,0.74,4.08-0.36c2.41-2.02,3.52-4.71,3.42-7.72c-0.12-3.59-0.64-7.16-1.02-10.74 c-0.1-0.96-0.52-1.94-0.42-2.87c0.43-4.1-2.08-6.38-5.04-8.38c-4.14-2.79-8.8-4.09-13.72-4.25c-4.57-0.15-9.21-0.41-13.71,0.21 c-4.9,0.68-6.16-3.13-4.29-6.9c4.26-8.56,10.63-14.75,19.39-18.57c5.66-2.46,11.58-3.91,17.68-4.34c12.77-0.9,25.57-1.21,37.68,3.89 c4.17,1.76,8.17,4.11,11.89,6.7c5.73,3.99,8.39,10.17,10.48,16.57C590,503.23,589.62,504.51,589.59,505.35z M518.47,574.18 c-0.26,0.27-0.52,0.54-0.78,0.81c0.56,1.16,0.89,2.55,1.73,3.45c2.46,2.63,5.12,5.07,7.71,7.57c5.5,5.3,13.13,6.48,19.94,2.98 c5.73-2.95,9.48-7.83,13.37-13.57C546.02,573.41,532.18,576.24,518.47,574.18z M550.8,558.83c-4.13-5.7-15.73-5.13-21.24-1.36 c-0.82,0.56-1.01,2.4-1,3.64c0,0.51,1.27,1.43,1.99,1.47c4.28,0.22,8.57,0.32,12.85,0.29C546.43,562.86,549.11,561.91,550.8,558.83z "></path> <path class="st0" d="M653.02,497.22c0.94-3.63,3.36-5.11,6.23-5.94c5.91-1.73,11.99-2.13,18.11-1.95 c9.16,0.26,17.73,2.93,26.04,6.55c4.55,1.99,8.99,4.21,13.87,6.51c0.61-1.55,1.27-2.9,1.66-4.31c1.19-4.27,2.16-8.6,3.43-12.85 c3.88-13.04,11.62-23.17,23.3-30.18c1.66-1,3.44-2.68,5.67-1.04c2.14,1.57,2.03,3.8,1.62,6.05c-2.99,15.97-0.48,31.28,6.41,45.76 c4.15,8.73,9.2,17.06,14.21,25.35c4.23,6.99,9,13.66,13.49,20.49c1.52,2.31,2.94,4.68,4.55,7.25c-3.43,3.05-7.45,4.26-11.7,4.78 c-5.18,0.63-10.28-0.08-15.11-1.99c-4.37-1.73-8.61-3.79-12.9-5.75c-1.38-0.63-2.76-1.32-4.05-2.12 c-13.17-8.11-27.64-10.18-42.76-9.32c-1.1,0.06-2.2,0.01-3.47,0.01C688.94,525.38,673.74,508.7,653.02,497.22z"></path> <path class="st0" d="M361.12,501.26c4.26-1.64,8.22-3.19,12.19-4.7c8.95-3.41,18.01-6.41,27.6-7.43c7.31-0.78,14.39,0.04,21.15,3.02 c1.62,0.71,3.13,1.68,5.33,2.87c-2.56,2.23-4.52,4.42-6.91,5.93c-17.07,10.82-30.06,25.63-41.49,42.01 c-0.23,0.33-0.56,0.6-0.38,0.41c-4.63,0-8.77-0.11-12.9,0.02c-10.6,0.32-20.32,3.96-29.84,8.24c-6.95,3.12-13.76,6.57-20.79,9.47 c-6.71,2.76-13.78,2.98-20.81,1.27c-2.22-0.54-4.26-1.78-6.78-2.88c1.8-2.89,3.29-5.34,4.84-7.76 c7.22-11.34,14.69-22.53,21.63-34.03c6.83-11.33,11.9-23.46,14.11-36.63c1.3-7.71,1.58-15.42,0.59-23.19 c-0.2-1.54-1.1-3.42,0.61-4.65c1.91-1.37,3.74-0.27,5.41,0.7c1.43,0.83,2.8,1.8,4.06,2.87c12.13,10.36,18.88,23.68,21.48,39.26 C360.48,497.66,360.77,499.28,361.12,501.26z"></path> <path class="st0" d="M518.06,525.62c-1.56-0.28-2.99-0.52-4.42-0.8c-3.38-0.66-6.73-1.5-10.13-1.95c-3.01-0.4-5.76,0.58-7.91,2.81 c-1.01,1.05-2.2,2.21-3.52,1.3c-0.96-0.66-1.59-2.15-1.84-3.38c-0.29-1.45-0.45-3.21,0.13-4.47c0.62-1.35,2.01-2.96,3.33-3.26 c8.04-1.82,15.67-0.98,22.14,4.75C517.71,522.27,517.73,522.5,518.06,525.62z"></path> <path class="st0" d="M586.98,526.74c-4.22-1.21-8.39-2.67-12.67-3.57c-4.42-0.92-8.79-0.32-12.68,2.22 c-2.02-3.44-1.75-5.56,1.44-6.6c6.25-2.05,12.54-4.42,19.34-2.65c1.06,0.28,2.16,0.52,3.13,1 C589.94,519.28,590.47,522.99,586.98,526.74z"></path> <path d="M564.31,440.06c-1.21,1.92-2.49,3.06-4.82,2.8c-12.04-1.34-24.04,0.16-36.06,0.52c-1.52,0.05-3.07,0.34-4.55,0.14 c-1.13-0.15-2.39-0.66-3.22-1.43c-2.09-1.92-1.97-3.19,0.36-5.01c4.8-3.74,9.66-7.4,14.5-11.09c2.41-1.84,4.84-3.66,7.17-5.43 C545.11,423.88,559.4,434.33,564.31,440.06z"></path> <path d="M518.47,574.18c13.71,2.06,27.56-0.77,41.97,1.24c-3.9,5.74-7.65,10.63-13.37,13.57c-6.81,3.5-14.44,2.32-19.94-2.98 c-2.59-2.5-5.25-4.94-7.71-7.57c-0.84-0.9-1.17-2.29-1.73-3.45C517.95,574.72,518.21,574.45,518.47,574.18z"></path> <path d="M550.8,558.83c-1.69,3.09-4.36,4.03-7.4,4.05c-4.28,0.02-8.57-0.07-12.85-0.29c-0.73-0.04-1.99-0.95-1.99-1.47 c-0.01-1.25,0.18-3.08,1-3.64C535.06,553.7,546.66,553.12,550.8,558.83z"></path> </svg> 